<svg xmlns="http://www.w3.org/2000/svg" viewBox="0 0 260 63.25"><g id="Layer_2" data-name="Layer 2"><g id="情報"><polygon points="130 63.25 140 49.93 120 49.93 130 63.25" fill="#2076b0"/><rect y="10.93" width="260" height="41" rx="20.5" fill="#2076b0"/><path d="M76.4,40.86a17.81,17.81,0,0,0,2.48.25,1.59,1.59,0,0,0,1.26-.42q.77-1,1.09-6.66H78.54l-.19,1a.34.34,0,0,1-.37.27c-.14,0-.53,0-1.18-.11-.82-.11-1.23-.24-1.23-.4a1.12,1.12,0,0,1,0-.19,50.36,50.36,0,0,0,1-6.46,13.29,13.29,0,0,0,.1-1.48c0-.14,0-.3,0-.51a.32.32,0,0,1,.37-.36l1.85.05h2.46V22.35h-2.7l-2.4.06c-.16,0-.25,0-.29-.06a.42.42,0,0,1,0-.24v-2a.5.5,0,0,1,0-.28.52.52,0,0,1,.28-.05l2.4.06h3.09l1.93-.06a.42.42,0,0,1,.29.07.55.55,0,0,1,0,.28L84,22.6v2.88L84,28c0,.15,0,.25-.07.27a.49.49,0,0,1-.26,0l-1.93,0H79.29c-.09,1-.22,2.06-.38,3.28h3l1.79-.05c.23,0,.34.09.34.27v.09c0,.28-.07.93-.12,2q-.3,6.06-1.19,8.23a2.65,2.65,0,0,1-1.31,1.45,5.35,5.35,0,0,1-2.26.4c-.55,0-1,0-1.34,0s-.49-.09-.56-.18a2.8,2.8,0,0,1-.19-.75A7.3,7.3,0,0,0,76.4,40.86Zm19.53-2.74a.38.38,0,0,1-.07-.18c0-.08.1-.17.31-.26l1.44-.62a.59.59,0,0,1,.25-.08c.08,0,.16.08.26.25a24.63,24.63,0,0,1,3,5.26.58.58,0,0,1,0,.19c0,.1-.1.2-.3.29l-1.59.72a.8.8,0,0,1-.28.07c-.12,0-.21-.08-.28-.26-.34-.87-.62-1.52-.82-1.94Q93,42.48,87,43.22a3.48,3.48,0,0,0-1.18.31,1.49,1.49,0,0,1-.49.14q-.36,0-.48-.45c-.16-.55-.36-1.47-.59-2.75.37,0,.74,0,1.13,0,.57,0,1.28,0,2.11-.08,1.1-.07,2.27-.18,3.53-.35V36.64H89.37l-3.57,0c-.16,0-.25,0-.28,0a.62.62,0,0,1,0-.26l.06-2.23v-3l-.06-2.23q0-.23.06-.27s.12,0,.26,0l3.57.05H91V26.33c-1.35.12-2.63.21-3.84.26a2.51,2.51,0,0,0-1,.22.88.88,0,0,1-.45.14c-.18,0-.31-.15-.38-.45-.16-.87-.29-1.7-.37-2.49.31,0,.69,0,1.12,0l1.08,0a23.39,23.39,0,0,0,1.74-3.61,8.45,8.45,0,0,0,.53-1.9,20,20,0,0,1,2.72.51c.29.09.43.23.43.41a.68.68,0,0,1-.29.51,2.63,2.63,0,0,0-.53.79Q90.93,22.38,90,24q2.1-.07,5.89-.38a24.7,24.7,0,0,0-1.71-2,.34.34,0,0,1-.12-.2c0-.07.08-.15.26-.25l1.39-.8a.64.64,0,0,1,.32-.13.36.36,0,0,1,.24.15,37.88,37.88,0,0,1,4.47,5.38.54.54,0,0,1,.1.26q0,.12-.27.3l-1.69,1a.73.73,0,0,1-.34.16q-.12,0-.24-.24c-.37-.67-.66-1.18-.88-1.52-1.34.16-2.61.29-3.8.39v2.6h1.9l3.58-.05a.47.47,0,0,1,.28.05.66.66,0,0,1,0,.26l-.06,2.23v3l.06,2.23a.48.48,0,0,1-.05.27s-.12,0-.27,0l-3.58,0h-1.9v3.1l3-.41Zm-7.8-3.8H91V31H88.13Zm8.6,0V31h-3.1v3.31Z" fill="none" stroke="#2076b0" stroke-linecap="round" stroke-linejoin="round" stroke-width="8"/><path d="M119.89,31.57a30,30,0,0,0,.59-3.61,7.44,7.44,0,0,0,0-.81,8.74,8.74,0,0,0-.07-1.09,11.3,11.3,0,0,1,3.24,1.2.51.51,0,0,1,.29.48.46.46,0,0,1-.08.27,7.65,7.65,0,0,0-.45,1.1c-.18.88-.44,2.08-.78,3.61A28.33,28.33,0,0,1,127,35.41a.36.36,0,0,1,.23.3,1.58,1.58,0,0,1-.05.29A19.91,19.91,0,0,1,126,38.4c-.08.13-.16.19-.25.19a.48.48,0,0,1-.33-.19,24.47,24.47,0,0,0-3.68-2.64,20.63,20.63,0,0,1-2.53,4.35,17.39,17.39,0,0,1-3.13,3,1.26,1.26,0,0,1-.56.32.93.93,0,0,1-.41-.19,6.58,6.58,0,0,0-2.45-1.17,18.66,18.66,0,0,0,4.25-3.89,14.61,14.61,0,0,0,2-3.69,18.36,18.36,0,0,0-5.54-1.71A22.63,22.63,0,0,1,110,38.4,4.74,4.74,0,0,1,106.4,40a3.1,3.1,0,0,1-2.41-1,4.05,4.05,0,0,1-.93-2.81,5.4,5.4,0,0,1,2.68-4.61,9.64,9.64,0,0,1,5.58-1.59q1.4-3.48,2.33-6.63l-3.86.45a5.61,5.61,0,0,0-1.27.32,1.42,1.42,0,0,1-.51.11.44.44,0,0,1-.43-.32,16.1,16.1,0,0,1-.83-3.05,9.67,9.67,0,0,0,1.93.18h.54a32.86,32.86,0,0,0,4.34-.37,3.42,3.42,0,0,0,1.37-.48.62.62,0,0,1,.37-.11.66.66,0,0,1,.38.11,9,9,0,0,1,1.92,1.55.69.69,0,0,1,.24.47.79.79,0,0,1-.27.48,1.93,1.93,0,0,0-.48.73l-.29.72c-1.39,3.67-2.17,5.7-2.33,6.11A24.79,24.79,0,0,1,119.89,31.57Zm-9.55,1a5.74,5.74,0,0,0-3.54,1.16,2.56,2.56,0,0,0-1.1,2c0,.86.33,1.28,1,1.28A2.26,2.26,0,0,0,108.3,36,18.27,18.27,0,0,0,110.34,32.58Z" fill="none" stroke="#2076b0" stroke-linecap="round" stroke-linejoin="round" stroke-width="8"/><path d="M142.59,4a12.73,12.73,0,0,1,7.32,2.08,13.22,13.22,0,0,1,4.75,6.37q1.67,4.29,1.67,11.93t-1.7,12a13.44,13.44,0,0,1-4.58,6.31,12.34,12.34,0,0,1-7.25,2,12.77,12.77,0,0,1-7.35-2,13.22,13.22,0,0,1-4.67-6.17q-1.68-4.14-1.69-11.79,0-10.68,3.3-15.48A11.73,11.73,0,0,1,142.59,4Zm.17,7a5,5,0,0,0-3.31,1.2,7.77,7.77,0,0,0-2.21,4.13,36.21,36.21,0,0,0-.76,8.57q0,7.35,1.74,10.16a5.2,5.2,0,0,0,4.54,2.81A4.81,4.81,0,0,0,147,35.22Q149,32,149,24.46t-1.73-10.55C146.07,12,144.59,11,142.76,11Z" fill="none" stroke="#2076b0" stroke-linecap="round" stroke-linejoin="round" stroke-width="8"/><path d="M164.6,5h11.05V43.76h-7.33V11.91h-8Z" fill="none" stroke="#2076b0" stroke-linecap="round" stroke-linejoin="round" stroke-width="8"/><path d="M76.4,40.86a17.81,17.81,0,0,0,2.48.25,1.59,1.59,0,0,0,1.26-.42q.77-1,1.09-6.66H78.54l-.19,1a.34.34,0,0,1-.37.27c-.14,0-.53,0-1.18-.11-.82-.11-1.23-.24-1.23-.4a1.12,1.12,0,0,1,0-.19,50.36,50.36,0,0,0,1-6.46,13.29,13.29,0,0,0,.1-1.48c0-.14,0-.3,0-.51a.32.32,0,0,1,.37-.36l1.85.05h2.46V22.35h-2.7l-2.4.06c-.16,0-.25,0-.29-.06a.42.42,0,0,1,0-.24v-2a.5.5,0,0,1,0-.28.52.52,0,0,1,.28-.05l2.4.06h3.09l1.93-.06a.42.42,0,0,1,.29.07.55.55,0,0,1,0,.28L84,22.6v2.88L84,28c0,.15,0,.25-.07.27a.49.49,0,0,1-.26,0l-1.93,0H79.29c-.09,1-.22,2.06-.38,3.28h3l1.79-.05c.23,0,.34.09.34.27v.09c0,.28-.07.93-.12,2q-.3,6.06-1.19,8.23a2.65,2.65,0,0,1-1.31,1.45,5.35,5.35,0,0,1-2.26.4c-.55,0-1,0-1.34,0s-.49-.09-.56-.18a2.8,2.8,0,0,1-.19-.75A7.3,7.3,0,0,0,76.4,40.86Zm19.53-2.74a.38.38,0,0,1-.07-.18c0-.08.1-.17.31-.26l1.44-.62a.59.59,0,0,1,.25-.08c.08,0,.16.08.26.25a24.63,24.63,0,0,1,3,5.26.58.58,0,0,1,0,.19c0,.1-.1.2-.3.29l-1.59.72a.8.8,0,0,1-.28.07c-.12,0-.21-.08-.28-.26-.34-.87-.62-1.52-.82-1.94Q93,42.48,87,43.22a3.48,3.48,0,0,0-1.18.31,1.49,1.49,0,0,1-.49.14q-.36,0-.48-.45c-.16-.55-.36-1.47-.59-2.75.37,0,.74,0,1.13,0,.57,0,1.28,0,2.11-.08,1.1-.07,2.27-.18,3.53-.35V36.64H89.37l-3.57,0c-.16,0-.25,0-.28,0a.62.62,0,0,1,0-.26l.06-2.23v-3l-.06-2.23q0-.23.06-.27s.12,0,.26,0l3.57.05H91V26.33c-1.35.12-2.63.21-3.84.26a2.51,2.51,0,0,0-1,.22.88.88,0,0,1-.45.14c-.18,0-.31-.15-.38-.45-.16-.87-.29-1.7-.37-2.49.31,0,.69,0,1.12,0l1.08,0a23.39,23.39,0,0,0,1.74-3.61,8.45,8.45,0,0,0,.53-1.9,20,20,0,0,1,2.72.51c.29.09.43.23.43.41a.68.68,0,0,1-.29.51,2.63,2.63,0,0,0-.53.79Q90.93,22.38,90,24q2.1-.07,5.89-.38a24.7,24.7,0,0,0-1.71-2,.34.34,0,0,1-.12-.2c0-.07.08-.15.26-.25l1.39-.8a.64.64,0,0,1,.32-.13.36.36,0,0,1,.24.15,37.88,37.88,0,0,1,4.47,5.38.54.54,0,0,1,.1.26q0,.12-.27.3l-1.69,1a.73.73,0,0,1-.34.16q-.12,0-.24-.24c-.37-.67-.66-1.18-.88-1.52-1.34.16-2.61.29-3.8.39v2.6h1.9l3.58-.05a.47.47,0,0,1,.28.05.66.66,0,0,1,0,.26l-.06,2.23v3l.06,2.23a.48.48,0,0,1-.05.27s-.12,0-.27,0l-3.58,0h-1.9v3.1l3-.41Zm-7.8-3.8H91V31H88.13Zm8.6,0V31h-3.1v3.31Z" fill="#fff"/><path d="M119.89,31.57a30,30,0,0,0,.59-3.61,7.44,7.44,0,0,0,0-.81,8.74,8.74,0,0,0-.07-1.09,11.3,11.3,0,0,1,3.24,1.2.51.51,0,0,1,.29.48.46.46,0,0,1-.08.27,7.65,7.65,0,0,0-.45,1.1c-.18.88-.44,2.08-.78,3.61A28.33,28.33,0,0,1,127,35.41a.36.36,0,0,1,.23.3,1.58,1.58,0,0,1-.05.29A19.91,19.91,0,0,1,126,38.4c-.08.13-.16.19-.25.19a.48.48,0,0,1-.33-.19,24.47,24.47,0,0,0-3.68-2.64,20.63,20.63,0,0,1-2.53,4.35,17.39,17.39,0,0,1-3.13,3,1.26,1.26,0,0,1-.56.32.93.93,0,0,1-.41-.19,6.58,6.58,0,0,0-2.45-1.17,18.66,18.66,0,0,0,4.25-3.89,14.61,14.61,0,0,0,2-3.69,18.36,18.36,0,0,0-5.54-1.71A22.63,22.63,0,0,1,110,38.4,4.74,4.74,0,0,1,106.4,40a3.1,3.1,0,0,1-2.41-1,4.05,4.05,0,0,1-.93-2.81,5.4,5.4,0,0,1,2.68-4.61,9.64,9.64,0,0,1,5.58-1.59q1.4-3.48,2.33-6.63l-3.86.45a5.61,5.61,0,0,0-1.27.32,1.42,1.42,0,0,1-.51.11.44.44,0,0,1-.43-.32,16.1,16.1,0,0,1-.83-3.05,9.67,9.67,0,0,0,1.93.18h.54a32.86,32.86,0,0,0,4.34-.37,3.42,3.42,0,0,0,1.37-.48.62.62,0,0,1,.37-.11.66.66,0,0,1,.38.11,9,9,0,0,1,1.92,1.55.69.69,0,0,1,.24.47.79.79,0,0,1-.27.48,1.93,1.93,0,0,0-.48.73l-.29.72c-1.39,3.67-2.17,5.7-2.33,6.11A24.79,24.79,0,0,1,119.89,31.57Zm-9.55,1a5.74,5.74,0,0,0-3.54,1.16,2.56,2.56,0,0,0-1.1,2c0,.86.33,1.28,1,1.28A2.26,2.26,0,0,0,108.3,36,18.27,18.27,0,0,0,110.34,32.58Z" fill="#fff"/><path d="M142.59,4a12.73,12.73,0,0,1,7.32,2.08,13.22,13.22,0,0,1,4.75,6.37q1.67,4.29,1.67,11.93t-1.7,12a13.44,13.44,0,0,1-4.58,6.31,12.34,12.34,0,0,1-7.25,2,12.77,12.77,0,0,1-7.35-2,13.22,13.22,0,0,1-4.67-6.17q-1.68-4.14-1.69-11.79,0-10.68,3.3-15.48A11.73,11.73,0,0,1,142.59,4Zm.17,7a5,5,0,0,0-3.31,1.2,7.77,7.77,0,0,0-2.21,4.13,36.21,36.21,0,0,0-.76,8.57q0,7.35,1.74,10.16a5.2,5.2,0,0,0,4.54,2.81A4.81,4.81,0,0,0,147,35.22Q149,32,149,24.46t-1.73-10.55C146.07,12,144.59,11,142.76,11Z" fill="#fff"/><path d="M164.6,5h11.05V43.76h-7.33V11.91h-8Z" fill="#fff"/></g></g></svg>