<svg xmlns="http://www.w3.org/2000/svg" viewBox="0 0 25.64 25.97"><g id="Layer_2" data-name="Layer 2"><g id="レイヤー_1" data-name="レイヤー 1"><circle cx="11.68" cy="14.29" r="11.68" fill="#2399d7"/><path d="M5.43,14.18a1,1,0,0,1,1.08-.91A2.7,2.7,0,0,1,8.69,14.4c.66.73,1.92,2.21,2.34,2.56.09.06.12.13.18.13s.12-.07.21-.19c.87-1.33,2.4-3.76,3.93-6.06,2.1-3.16,4.44-6.41,5-7.17s.53-1,1.58-1.2a4.62,4.62,0,0,1,.57-.06c.66,0,.69.34.69.66s-.36.57-.66.85A69.77,69.77,0,0,0,16.82,12c-1.47,2.34-2.91,5-3.27,7.42-.12.89-.45,1.46-1.2,1.46a3.31,3.31,0,0,1-1.92-.73,3.71,3.71,0,0,1-1-1.23,34.5,34.5,0,0,0-3.62-4.11A.93.93,0,0,1,5.43,14.18Z" fill="#fafcfc" stroke="#fafcfc" stroke-miterlimit="10" stroke-width="4.81"/></g></g></svg>