<?xml version="1.0" encoding="UTF-8"?>
<svg id="_レイヤー_1" data-name="レイヤー 1" xmlns="http://www.w3.org/2000/svg" viewBox="0 0 650 47">
  <defs>
    <style>
      .cls-1 {
        fill: #3e3a39;
      }

      .cls-1, .cls-2 {
        stroke-width: 0px;
      }

      .cls-3 {
        fill: none;
        stroke: #3e3a39;
        stroke-miterlimit: 10;
        stroke-width: 3px;
      }

      .cls-2 {
        fill: #065ca1;
      }
    </style>
  </defs>
  <g>
    <path class="cls-2" d="M37.59,41.74c-.12-.43-.29-.96-.53-1.58-.23-.62-.48-1.14-.75-1.53,4.38-.35,8.31-1.23,11.8-2.63-1.22-.65-2.31-1.41-3.28-2.29-2.2,1.52-4.46,2.72-6.79,3.61-.19-.43-.47-.91-.86-1.44-.39-.53-.79-.98-1.19-1.32,1.28-.4,2.54-.92,3.79-1.57,1.25-.65,2.42-1.37,3.51-2.16,1.09-.79,2.01-1.59,2.78-2.39-1.82.12-3.64.25-5.46.37-.28-4.11-.57-8.23-.85-12.35,2.17-.15,4.34-.3,6.51-.45.19-.52.34-1,.47-1.45-3.82.26-7.64.52-11.46.79-.07-.97-.14-1.93-.2-2.9,9.78-.69,19.56-1.34,29.35-1.96.06.97.12,1.93.18,2.9-4.5.28-8.99.57-13.48.87-.07.25-.15.49-.22.73-.07.24-.16.48-.25.73,3.15-.21,6.31-.42,9.46-.62.26,4.12.53,8.23.79,12.35-3.52.23-7.04.46-10.56.69-.14.23-.29.46-.44.67-.15.22-.31.43-.47.64,3.43-.23,6.86-.46,10.29-.68.41.34.82.67,1.23,1.01-1.35,2.11-3.09,3.96-5.22,5.53,1.59.34,3.31.57,5.16.71,1.84.13,3.78.17,5.81.11-.26.44-.5,1.01-.72,1.71-.22.71-.37,1.33-.45,1.86-2.19-.04-4.47-.21-6.83-.5-2.36-.3-4.62-.82-6.77-1.56-1.97,1.01-4.15,1.87-6.54,2.57-2.39.7-5,1.21-7.8,1.52ZM43.91,19.7c4.17-.28,8.34-.56,12.51-.83-.03-.42-.05-.83-.08-1.25-4.17.27-8.34.55-12.51.83.03.42.06.83.09,1.25ZM44.13,22.93c4.16-.28,8.33-.56,12.5-.83-.03-.41-.05-.81-.08-1.22-4.17.27-8.33.55-12.5.83.03.41.06.81.08,1.22ZM44.35,26.22c4.16-.28,8.32-.56,12.49-.83-.03-.43-.06-.86-.08-1.28-4.16.27-8.33.55-12.49.83.03.43.06.86.09,1.28ZM51.8,34.12c1.28-.77,2.36-1.64,3.25-2.63-2.38.16-4.76.32-7.14.48.56.43,1.17.82,1.82,1.18.66.36,1.35.69,2.07.97Z"/>
    <path class="cls-1" d="M72.01,37.51c-.16-.15-.42-.32-.76-.51-.34-.19-.69-.38-1.05-.55-.36-.17-.66-.28-.91-.33.68-.82,1.32-1.81,1.93-2.97.61-1.16,1.18-2.41,1.7-3.77.53-1.35.98-2.74,1.37-4.15-.88.16-1.73.33-2.55.52-.82.19-1.49.37-2.02.54-.03-.22-.09-.52-.19-.9-.09-.38-.2-.75-.3-1.11-.11-.37-.22-.64-.31-.83.4-.06.92-.13,1.56-.23.64-.09,1.35-.2,2.13-.33.78-.12,1.56-.24,2.34-.34.25-1.11.44-2.19.58-3.25.14-1.06.21-2.04.23-2.94,1.04.12,2.08.24,3.12.36-.04.8-.13,1.66-.27,2.58-.14.92-.32,1.86-.54,2.83.35-.04.66-.07.94-.1.28-.02.52-.04.73-.06.7-.04,1.33.03,1.89.21.56.18,1.02.54,1.39,1.06.36.53.6,1.27.71,2.22.11.96.07,2.19-.12,3.69-.24,1.89-.55,3.38-.93,4.46-.38,1.08-.89,1.86-1.52,2.33-.63.47-1.46.74-2.49.8-.49.03-.97,0-1.44-.06-.47-.07-.92-.19-1.33-.38,0-.4-.04-.89-.09-1.48-.05-.59-.13-1.07-.24-1.44.89.33,1.75.47,2.59.42.42-.02.77-.16,1.06-.42.29-.25.55-.74.79-1.45.24-.72.45-1.77.65-3.15.18-1.28.23-2.22.15-2.83-.09-.61-.28-1-.57-1.18-.29-.17-.64-.25-1.06-.22-.49.03-1.07.09-1.74.18-.44,1.64-.96,3.26-1.55,4.86-.59,1.6-1.22,3.08-1.87,4.44-.66,1.36-1.31,2.51-1.97,3.46ZM90.6,29.66c-.3-.45-.72-.98-1.24-1.6-.52-.61-1.09-1.23-1.7-1.84-.61-.62-1.2-1.18-1.77-1.69-.57-.51-1.07-.9-1.48-1.15.73-.69,1.46-1.37,2.19-2.05.44.29.95.68,1.54,1.17.59.5,1.2,1.04,1.82,1.63.63.59,1.21,1.17,1.75,1.75.54.58.96,1.08,1.26,1.52-.79.76-1.57,1.51-2.36,2.27Z"/>
    <path class="cls-1" d="M104.09,36.39c-.07-.25-.18-.58-.35-.97-.17-.39-.37-.78-.6-1.16-.23-.39-.45-.69-.68-.9,2.78-.08,4.89-.52,6.32-1.33,1.43-.8,2.11-1.87,2.04-3.2-.04-.78-.38-1.37-1.03-1.77-.65-.4-1.48-.58-2.49-.52-.78.04-1.61.2-2.49.48-.87.28-1.69.71-2.45,1.28-.76.57-1.39,1.31-1.88,2.22-.95-.36-1.9-.71-2.86-1.07.31-.62.57-1.4.77-2.32.2-.92.35-1.88.46-2.88.1-.99.16-1.93.19-2.82.02-.89-.01-1.61-.09-2.18,1.1.07,2.19.14,3.29.21.06.85.05,1.85-.05,3.01-.09,1.16-.28,2.31-.55,3.45.89-.66,1.83-1.17,2.82-1.56.99-.38,1.93-.6,2.82-.64,1.36-.07,2.55.1,3.57.5,1.02.41,1.83,1,2.43,1.77.6.78.92,1.68.98,2.72.07,1.31-.25,2.51-.95,3.6-.7,1.09-1.81,1.98-3.33,2.69-1.52.7-3.48,1.17-5.89,1.38ZM107.53,19.51c-.45-.32-.99-.64-1.61-.96-.62-.31-1.27-.61-1.95-.89-.68-.27-1.34-.51-1.99-.71-.65-.2-1.22-.33-1.71-.39.47-.93.95-1.86,1.42-2.79.46.1,1.01.25,1.65.47.64.22,1.31.46,2.02.74.71.27,1.38.55,2.01.83.64.28,1.16.54,1.58.78-.47.97-.95,1.94-1.42,2.91Z"/>
    <path class="cls-1" d="M133,33.79c-.08-.27-.23-.6-.44-.97-.21-.37-.45-.73-.72-1.07-.27-.34-.53-.62-.78-.84,2.36-.48,4.14-1.34,5.33-2.58,1.19-1.24,1.78-2.67,1.78-4.28.01-1.28-.28-2.42-.86-3.4-.59-.98-1.36-1.76-2.32-2.34-.96-.58-2-.91-3.12-.97-.06,1.62-.25,3.27-.55,4.97-.3,1.7-.75,3.3-1.33,4.8-.58,1.5-1.32,2.79-2.21,3.85-.68.8-1.34,1.27-2.01,1.42-.66.15-1.38.09-2.14-.18-.75-.28-1.41-.74-2-1.39-.59-.65-1.06-1.43-1.4-2.34-.34-.91-.51-1.9-.51-2.96,0-1.58.31-3.04.91-4.38.6-1.34,1.43-2.51,2.5-3.52,1.07-1.01,2.31-1.79,3.74-2.34,1.42-.55,2.96-.83,4.6-.82,1.33,0,2.59.24,3.78.71,1.19.46,2.25,1.13,3.17,2,.92.87,1.65,1.89,2.18,3.06.53,1.17.79,2.47.76,3.9-.02,2.38-.76,4.4-2.24,6.07-1.47,1.67-3.51,2.86-6.13,3.57ZM124.28,28.95c.2.13.4.19.61.18.21-.01.41-.13.61-.34.6-.66,1.13-1.57,1.61-2.73.47-1.17.86-2.48,1.15-3.93.29-1.45.45-2.93.48-4.42-1.19.33-2.23.89-3.13,1.66-.9.77-1.59,1.69-2.08,2.74-.49,1.05-.74,2.2-.75,3.43,0,.82.15,1.51.43,2.1.28.59.64,1.02,1.07,1.31Z"/>
    <path class="cls-1" d="M146.62,35.02c-.16-.18-.38-.39-.65-.62-.27-.23-.55-.46-.84-.68-.29-.22-.55-.39-.78-.5,1.35-.84,2.33-1.89,2.92-3.16.59-1.27.88-2.82.87-4.66-.78.03-1.57.07-2.35.1-.09-2.04-.18-4.09-.27-6.13-.27-.21-.63-.45-1.06-.71-.44-.26-.81-.44-1.11-.55.45-.4.9-.91,1.35-1.53.45-.62.86-1.28,1.25-1.98.39-.7.73-1.39,1.01-2.06.29-.67.48-1.27.58-1.79.96.15,1.92.3,2.88.45-.06.26-.14.53-.24.8-.1.27-.22.55-.34.83,1.63-.07,3.26-.14,4.89-.2.26.24.53.48.79.72-.14.34-.32.73-.53,1.19-.21.46-.42.92-.65,1.39-.23.47-.44.9-.65,1.29,1.13-.05,2.27-.09,3.4-.14.11,2.64.22,5.28.32,7.92-.86.03-1.72.07-2.58.11.08,1.93.16,3.86.24,5.79,0,.22.08.39.2.5.13.11.36.16.71.14,2.98-.12,5.96-.24,8.94-.36.66-.03,1.09-.24,1.31-.65.21-.41.32-1.09.34-2.04.35.16.8.32,1.35.47.55.15.98.27,1.32.34-.13,1.22-.31,2.15-.56,2.78-.25.63-.59,1.07-1.05,1.3-.45.24-1.07.37-1.85.4-3.59.14-7.19.28-10.78.43-.95.04-1.63-.08-2.02-.34-.39-.27-.61-.75-.63-1.44-.1-2.4-.2-4.8-.3-7.2-.38.02-.76.03-1.15.05.02,2.15-.3,4.03-.98,5.64-.67,1.61-1.76,2.97-3.28,4.1ZM147.27,17.5c1.12-.05,2.23-.1,3.35-.14.11-.23.24-.5.38-.82.14-.32.28-.61.41-.89.13-.27.2-.44.22-.49-1,.04-2.01.08-3.01.13-.21.39-.43.77-.66,1.15-.23.37-.46.73-.69,1.07ZM148.34,22.9c.63-.03,1.25-.05,1.88-.08-.04-.98-.08-1.96-.12-2.94-.63.03-1.25.05-1.88.08.04.98.08,1.96.13,2.94ZM152.73,22.71c.64-.03,1.27-.05,1.91-.08-.04-.98-.08-1.96-.12-2.94-.64.03-1.27.05-1.91.08.04.98.08,1.96.12,2.94ZM157.48,30.74c-.24-.32-.55-.66-.93-1.03-.38-.37-.73-.63-1.05-.82.85-.55,1.56-1.14,2.13-1.75.58-.61,1.04-1.32,1.4-2.13.36-.8.61-1.75.76-2.84.15-1.09.2-2.39.16-3.9-.82.03-1.64.07-2.46.1-.04-.87-.07-1.75-.11-2.62.82-.03,1.64-.07,2.46-.1-.07-1.63-.13-3.26-.2-4.88.92-.04,1.85-.07,2.78-.11.06,1.63.13,3.26.19,4.89,1.56-.06,3.12-.12,4.68-.18.04,1.16.07,2.33.07,3.51,0,1.18-.02,2.3-.05,3.37-.04,1.07-.09,2.02-.16,2.87-.07.84-.16,1.5-.26,1.98-.19.98-.56,1.71-1.1,2.19-.55.48-1.41.75-2.59.79-.43.02-.85.03-1.28.05-.03-.4-.11-.88-.23-1.45-.12-.57-.24-1.03-.36-1.39.41-.02.82-.03,1.23-.05.61-.02,1.02-.11,1.23-.27.21-.16.38-.48.5-.97.07-.32.14-.78.19-1.4.05-.62.09-1.31.12-2.08.02-.77.04-1.55.04-2.33,0-.78,0-1.48-.03-2.08-.64.02-1.27.05-1.91.07.05,2.25-.12,4.17-.52,5.76-.4,1.59-.99,2.92-1.79,4.01-.79,1.09-1.76,2.02-2.91,2.8Z"/>
    <path class="cls-1" d="M172.42,33.82c-.03-.29-.09-.63-.18-1.02-.09-.39-.19-.77-.3-1.15-.11-.38-.22-.68-.33-.9.62-.02,1.23-.05,1.85-.07.61-.03,1.05-.15,1.32-.39.27-.23.45-.68.55-1.32.11-.68.19-1.47.23-2.36.04-.9.04-1.71.01-2.46-1.58.06-3.17.12-4.75.18.08-.56.15-1.19.19-1.89.04-.7.08-1.43.1-2.18.03-.75.04-1.46.05-2.14.01-.68,0-1.26-.01-1.74,1.38-.05,2.75-.1,4.13-.15-.03-.93-.07-1.85-.1-2.78-1.54.06-3.09.11-4.63.17-.03-.88-.07-1.75-.1-2.62,2.54-.09,5.08-.19,7.62-.28.09,2.62.19,5.23.28,7.85-1.45.05-2.89.1-4.34.16.01.33,0,.74,0,1.24-.02.49-.05.97-.11,1.42,1.55-.06,3.1-.11,4.65-.17.05,1.33.07,2.49.06,3.46,0,.97-.03,1.83-.08,2.59-.04.76-.1,1.48-.16,2.18-.14,1.58-.55,2.69-1.25,3.31-.7.62-1.76.96-3.18,1.01-.5.02-1.01.04-1.51.06ZM192.68,33.23c-.11-.22-.26-.5-.46-.84-.19-.34-.42-.7-.67-1.07-.53.14-1.2.28-1.98.42-.79.14-1.63.28-2.53.41-.9.14-1.8.26-2.69.38-.89.12-1.72.22-2.49.31-.77.09-1.42.16-1.96.21-.21-.94-.41-1.88-.62-2.81.66-.04,1.5-.12,2.54-.23,1.03-.11,2.1-.23,3.21-.36-.04-1.1-.07-2.2-.11-3.3-1.68.06-3.36.12-5.03.17-.09-2.49-.18-4.97-.26-7.46,1.68-.06,3.36-.12,5.04-.17-.02-.61-.04-1.23-.06-1.84-1.04.16-2.03.29-2.97.4-.94.11-1.7.2-2.29.25-.19-.88-.38-1.76-.56-2.63.33-.03.72-.06,1.16-.11.44-.04.92-.09,1.42-.14.23-.48.47-1.05.71-1.73.25-.67.47-1.35.66-2.01.2-.67.33-1.2.4-1.6,1.11.07,2.22.15,3.34.23-.09.32-.25.75-.48,1.3-.23.55-.48,1.13-.75,1.74-.28.61-.54,1.17-.78,1.68.76-.1,1.52-.2,2.27-.31.75-.11,1.42-.21,2.03-.3-.25-.3-.52-.6-.79-.88-.27-.29-.53-.54-.78-.75.74-.54,1.48-1.07,2.23-1.61.52.45,1.08,1.01,1.69,1.66.61.66,1.19,1.32,1.74,2,.55.68,1,1.28,1.33,1.8-.19.09-.45.25-.77.47-.32.22-.64.45-.95.71-.31.25-.55.47-.74.65-.13-.26-.3-.53-.5-.84-.2-.3-.42-.62-.66-.94-.38.08-.84.17-1.37.25-.53.09-1.1.18-1.7.29.02.73.05,1.46.07,2.18,1.72-.06,3.43-.11,5.15-.17.08,2.49.16,4.97.24,7.46-1.71.05-3.43.11-5.14.17.03,1,.07,2.01.1,3.01.38-.05.74-.1,1.09-.15.35-.06.67-.1.96-.15-.18-.27-.37-.52-.55-.75-.18-.23-.35-.43-.49-.59.79-.48,1.59-.95,2.38-1.43.43.45.9,1.02,1.41,1.68.51.67.99,1.34,1.43,2,.45.66.79,1.21,1.03,1.66-.2.13-.46.3-.78.51-.31.21-.63.42-.94.64-.31.22-.57.41-.78.57ZM182.64,23.91c.73-.03,1.46-.05,2.19-.08-.03-.82-.06-1.65-.08-2.47-.73.03-1.46.05-2.19.08.03.82.06,1.65.09,2.47ZM187.72,23.74c.76-.03,1.51-.05,2.27-.08-.03-.82-.05-1.65-.08-2.47-.76.03-1.51.05-2.27.08.03.82.05,1.65.08,2.47Z"/>
    <path class="cls-1" d="M198.94,31.78c-.14-.67-.26-1.54-.37-2.6-.1-1.06-.19-2.25-.25-3.56-.07-1.31-.11-2.66-.14-4.05-.03-1.39-.02-2.76,0-4.1s.08-2.57.16-3.7c.08-1.13.19-2.07.32-2.82,1,.2,2,.41,3.01.61-.17.61-.31,1.43-.41,2.46-.1,1.03-.17,2.17-.2,3.43-.03,1.26-.04,2.56-.01,3.89.02,1.33.07,2.63.16,3.88.08,1.26.18,2.4.31,3.44.13,1.04.27,1.87.43,2.51-1,.2-2,.41-3.01.61ZM208.59,31.18c-1.36-.03-2.45-.4-3.29-1.1-.84-.7-1.26-1.59-1.28-2.67,0-.66.2-1.28.6-1.85.4-.57.98-1.04,1.74-1.4.76-.36,1.66-.55,2.72-.58.56-.01,1.08,0,1.57.03-.04-.76-.09-1.63-.15-2.6-.06-.97-.13-2.03-.19-3.17-1.08.1-2.12.17-3.13.21-1.01.04-1.87.05-2.59.04-.1-1.05-.2-2.11-.3-3.16.65.09,1.5.12,2.55.09,1.05-.02,2.17-.07,3.33-.16-.04-.69-.07-1.4-.1-2.12-.03-.72-.05-1.45-.07-2.2,1.02-.03,2.04-.06,3.06-.08,0,.66,0,1.34.02,2.03.01.69.03,1.39.04,2.1,1.04-.11,1.99-.24,2.84-.38.85-.14,1.49-.28,1.93-.43.03,1.04.05,2.08.08,3.12-.49.12-1.15.23-1.98.34-.83.11-1.74.22-2.71.33.07,1.26.14,2.47.23,3.62.08,1.15.15,2.16.21,3.02.98.32,1.93.74,2.85,1.25.92.51,1.82,1.09,2.71,1.72-.19.16-.4.41-.65.73-.24.33-.47.66-.67,1.01-.2.34-.35.63-.45.86-1.19-1.03-2.41-1.84-3.66-2.45-.08,1.37-.58,2.36-1.5,2.97-.91.6-2.17.89-3.77.87ZM208.75,28.53c.71-.02,1.24-.18,1.59-.47.35-.3.51-.81.49-1.56,0-.06,0-.12,0-.18-.59-.12-1.22-.19-1.86-.21-.64,0-1.16.12-1.54.36-.39.24-.58.54-.59.9,0,.36.17.65.52.87.35.22.82.32,1.39.3Z"/>
    <path class="cls-1" d="M227.26,31.74c-.34-.55-.8-1.14-1.36-1.76-.56-.63-1.15-1.23-1.76-1.79-.61-.56-1.19-1.03-1.74-1.4.65-.61,1.29-1.23,1.94-1.84.41.25.85.57,1.33.97.48.4.97.82,1.47,1.27.5.45.96.88,1.37,1.31.42.42.76.8,1.03,1.12-.76.71-1.51,1.42-2.27,2.13Z"/>
    <path class="cls-2" d="M244.04,32.47c-.05-.53-.18-1.17-.37-1.92-.19-.76-.38-1.35-.56-1.79,1.1-.02,2.21-.04,3.31-.06.44,0,.76-.09.96-.23.19-.15.29-.44.28-.88-.02-1.13-.04-2.27-.06-3.4-4.31.08-8.61.17-12.92.26-.02-1.12-.05-2.24-.07-3.36,4.31-.09,8.62-.18,12.93-.26-.01-.65-.02-1.3-.04-1.95.5,0,.99-.02,1.49-.03.33-.25.76-.59,1.29-1.03.53-.44,1.02-.86,1.45-1.26-3.77.07-7.54.14-11.31.22-.02-1.08-.04-2.16-.07-3.23,5.59-.11,11.18-.22,16.77-.31.51.5,1.01,1,1.52,1.49-.41.43-.93.92-1.54,1.48-.61.56-1.25,1.13-1.93,1.72-.68.58-1.32,1.13-1.95,1.62-.62.5-1.15.9-1.59,1.22,4.08-.07,8.15-.14,12.23-.2.02,1.12.03,2.24.05,3.36-4.13.06-8.26.13-12.39.2.03,1.59.06,3.19.09,4.78.04,2.29-1.33,3.46-4.1,3.51-1.16.02-2.31.04-3.47.07ZM234.76,16.26c-.06-2.6-.11-5.19-.17-7.79,1.71-.04,3.41-.07,5.12-.11-.33-.7-.73-1.45-1.23-2.27-.49-.82-.96-1.46-1.39-1.93,1.13-.54,2.26-1.08,3.4-1.62.34.37.71.85,1.11,1.45.4.6.78,1.21,1.15,1.83.37.62.64,1.16.83,1.62-.67.3-1.34.6-2.01.9,1.93-.04,3.86-.08,5.78-.11-.19-.5-.44-1.07-.75-1.69-.31-.62-.64-1.22-.98-1.81-.34-.59-.69-1.09-1.03-1.5,1.18-.45,2.36-.9,3.54-1.35.34.37.71.87,1.11,1.51.4.64.78,1.3,1.13,1.98.36.68.62,1.25.78,1.74-.88.37-1.76.74-2.64,1.1,1.45-.03,2.9-.05,4.36-.08.37-.6.75-1.28,1.14-2.05.4-.77.77-1.52,1.13-2.28.35-.75.64-1.38.85-1.9,1.34.32,2.67.64,4.01.96-.37.8-.81,1.68-1.32,2.63-.52.96-1,1.81-1.45,2.56,2.07-.03,4.14-.07,6.22-.1.04,2.6.08,5.19.12,7.79-1.27.02-2.54.04-3.82.06-.02-1.54-.05-3.08-.07-4.62-7.09.11-14.17.24-21.26.39.03,1.54.06,3.08.1,4.62-1.25.03-2.5.05-3.75.08Z"/>
    <path class="cls-2" d="M270.65,27.87c-.03-2.57-.07-5.15-.1-7.72-.26.42-.54.83-.83,1.23-.29.4-.59.79-.9,1.17-.36-.32-.84-.69-1.44-1.09-.6-.4-1.12-.69-1.54-.89,1.09-1.23,2.02-2.64,2.79-4.23.77-1.6,1.4-3.25,1.86-4.98.46-1.72.75-3.38.87-4.96-1.41.02-2.82.04-4.22.06-.02-1.12-.03-2.24-.05-3.37,4.53-.06,9.05-.12,13.58-.17.01,1.12.02,2.24.04,3.37-1.86.02-3.72.04-5.59.06-.12,1.05-.28,2.12-.49,3.21-.21,1.08-.47,2.14-.79,3.18,2.01-.03,4.03-.05,6.04-.07.05,5.03.11,10.05.16,15.08-3.13.03-6.26.07-9.4.11ZM273.88,24.43c.92-.01,1.83-.02,2.75-.03-.03-2.76-.06-5.52-.1-8.28-.92.01-1.84.02-2.75.03.03,2.76.07,5.52.1,8.28ZM280.88,31.91c-.29-.37-.71-.81-1.27-1.31-.56-.5-1.09-.88-1.6-1.14,1.29-.78,2.38-1.74,3.28-2.86.89-1.12,1.57-2.49,2.04-4.1.47-1.61.71-3.55.74-5.82-1.05.01-2.1.02-3.15.03-.01-1.15-.02-2.31-.04-3.46,1.06-.01,2.12-.02,3.19-.03-.02-2.32-.05-4.64-.07-6.96-.81,0-1.62.02-2.43.02-.01-1.13-.02-2.27-.04-3.4,4.98-.05,9.96-.1,14.95-.13,0,1.13.02,2.27.02,3.4-.8,0-1.6.01-2.39.02.02,2.32.03,4.64.05,6.96,1.08,0,2.17-.02,3.25-.02,0,1.16.02,2.31.02,3.46-1.08,0-2.17.02-3.25.02.04,4.98.07,9.97.11,14.95-1.24,0-2.49.02-3.73.03-.04-4.98-.08-9.97-.13-14.95-.9,0-1.79.02-2.69.02-.03,3.65-.59,6.7-1.67,9.12-1.08,2.43-2.81,4.47-5.2,6.13ZM287.72,13.2c.9,0,1.79-.02,2.69-.02-.02-2.32-.04-4.64-.06-6.96-.9,0-1.8.02-2.69.02.02,2.32.04,4.64.06,6.96Z"/>
    <path class="cls-1" d="M302.21,29.31c-.13-.71-.23-1.58-.3-2.61-.08-1.03-.13-2.16-.16-3.38-.03-1.22-.04-2.48-.02-3.78.02-1.3.06-2.57.14-3.81.07-1.24.17-2.39.3-3.45.12-1.06.27-1.96.44-2.71,1.02.2,2.04.41,3.07.61-.19.62-.35,1.44-.48,2.43-.14,1-.24,2.09-.33,3.28-.08,1.19-.13,2.4-.15,3.65-.02,1.25,0,2.46.03,3.64.04,1.18.11,2.24.2,3.2.09.95.21,1.72.35,2.31-1.02.2-2.05.41-3.07.61ZM313.28,27.86c-3.01-.08-4.71-1.05-5.12-2.92-.11-.47-.14-.99-.11-1.56.03-.57.16-1.21.38-1.9.91.22,1.83.44,2.74.67-.12.33-.18.63-.19.89,0,.26.02.49.09.7.23.62,1.15.96,2.77,1.01.78.02,1.62-.02,2.52-.1.9-.08,1.77-.2,2.63-.36.86-.16,1.61-.33,2.26-.52-.03.24-.07.57-.12.99-.04.42-.07.84-.09,1.26-.02.42-.02.77,0,1.05-.82.21-1.69.37-2.62.5-.93.12-1.84.21-2.74.25-.9.04-1.7.06-2.41.05ZM309.32,15.19c-.06-1.07-.13-2.13-.19-3.2.66.08,1.47.13,2.43.15.96.01,1.96,0,3-.05,1.04-.05,2.03-.13,2.98-.24.95-.11,1.74-.26,2.37-.43-.04,1.05-.08,2.1-.13,3.15-.7.12-1.51.23-2.43.33-.92.1-1.88.17-2.86.23-.98.05-1.93.09-2.82.1-.9.01-1.68,0-2.34-.03Z"/>
    <path class="cls-1" d="M332.77,30.87c-.21-.35-.48-.76-.83-1.25-.35-.49-.75-.9-1.2-1.25,1.84-.52,3.26-1.12,4.25-1.8.99-.68,1.68-1.49,2.07-2.43-.56.28-1.11.41-1.67.41-1.32,0-2.39-.38-3.19-1.12s-1.24-1.75-1.29-3.02c-.03-.86.14-1.64.53-2.33.38-.68.93-1.23,1.62-1.62.7-.4,1.49-.59,2.38-.59.14,0,.26,0,.37.01.1,0,.22.02.34.04-.03-.31-.07-.63-.1-.96-.03-.33-.05-.68-.05-1.04-1.41.05-2.79.12-4.13.23-1.34.1-2.57.22-3.69.35-1.12.13-2.04.28-2.77.45-.15-1-.3-2.01-.44-3.02.63-.05,1.51-.11,2.64-.17,1.13-.06,2.43-.12,3.89-.19,1.46-.07,2.96-.13,4.52-.2,0-1.22,0-2.44,0-3.67,1.01,0,2.03,0,3.04,0,0,1.18,0,2.36-.01,3.54,1.36-.05,2.66-.09,3.9-.13,1.24-.04,2.35-.07,3.33-.09.98-.02,1.74-.02,2.3,0-.08,1.01-.15,2.03-.23,3.04-1.01-.13-2.35-.21-4.01-.24-1.67-.03-3.43-.04-5.3,0,0,.62.02,1.26.06,1.9.04.64.08,1.26.11,1.85.85,1.01,1.27,2.34,1.26,4.01,0,2.31-.69,4.24-2.03,5.8-1.34,1.57-3.23,2.72-5.66,3.48ZM335.43,21.95c.49-.03.87-.2,1.15-.49.28-.29.42-.67.42-1.14,0-.16-.01-.32-.04-.51-.02-.18-.06-.38-.09-.59-.36-.42-.83-.62-1.38-.63-.49,0-.9.15-1.23.46-.33.31-.49.71-.47,1.19,0,.5.15.92.45,1.24.3.32.7.48,1.19.46Z"/>
    <path class="cls-1" d="M372.58,26.17c-.57-.32-1.26-.74-2.06-1.27-.8-.53-1.66-1.12-2.56-1.76-.91-.64-1.81-1.3-2.71-1.98-.9-.68-1.74-1.33-2.52-1.96-.78-.63-1.43-1.18-1.95-1.66-.26-.24-.46-.37-.6-.37-.14,0-.33.1-.58.31-.54.5-1.18,1.04-1.89,1.61-.72.57-1.46,1.15-2.22,1.71-.76.57-1.5,1.09-2.22,1.57-.81-.9-1.62-1.8-2.44-2.69.52-.24,1.16-.57,1.91-1,.75-.43,1.53-.91,2.32-1.43.8-.52,1.55-1.05,2.25-1.57.7-.52,1.27-1,1.71-1.43.44-.45.85-.65,1.22-.61.38.04.8.27,1.29.69.4.33.99.8,1.78,1.41.79.6,1.68,1.27,2.69,1.99,1,.72,2.04,1.44,3.1,2.15,1.06.72,2.08,1.36,3.06,1.95.98.58,1.83,1.03,2.56,1.33-.25.19-.51.47-.81.84-.29.37-.56.75-.81,1.15-.25.4-.43.74-.53,1.03ZM368.63,15.8c-.38-.5-.86-1.05-1.45-1.63-.59-.58-1.11-1.04-1.58-1.37.45-.42.9-.84,1.35-1.26.28.19.61.48,1.01.86.4.38.79.76,1.18,1.14.39.39.68.71.89.97-.47.43-.93.86-1.4,1.28ZM370.85,13.67c-.38-.51-.87-1.04-1.47-1.61-.61-.57-1.14-1.02-1.61-1.36.45-.41.9-.82,1.35-1.23.28.19.61.47,1.01.83.4.36.8.73,1.19,1.12.4.39.7.71.91.97-.46.43-.92.86-1.38,1.28Z"/>
    <path class="cls-1" d="M394.4,30.67c-1.8-.24-3.39-.79-4.77-1.65-1.38-.86-2.45-1.98-3.21-3.35-.76-1.37-1.13-2.92-1.11-4.66.02-1.25.34-2.51.97-3.79.63-1.28,1.54-2.42,2.75-3.4-1.4.2-2.79.42-4.17.65-1.38.23-2.64.45-3.76.66-1.13.21-2,.4-2.61.56-.22-1.13-.44-2.26-.66-3.39.58-.03,1.38-.09,2.4-.2,1.02-.11,2.17-.24,3.46-.41,1.28-.16,2.61-.34,3.99-.54,1.37-.2,2.7-.4,3.99-.6,1.29-.21,2.44-.41,3.47-.61,1.02-.2,1.83-.38,2.41-.54.26,1.06.52,2.12.78,3.19-.26.01-.59.05-.98.1-.39.05-.84.11-1.35.17-.94.1-1.86.38-2.75.84-.89.45-1.68,1.04-2.38,1.77-.7.73-1.26,1.56-1.67,2.51-.42.95-.63,1.98-.65,3.08-.02,1.32.3,2.42.97,3.32.66.89,1.58,1.6,2.75,2.11,1.17.51,2.48.87,3.93,1.07-.27.27-.52.6-.77.99-.25.39-.47.77-.65,1.16-.18.39-.3.71-.36.97Z"/>
    <path class="cls-1" d="M409.57,30.74c-1.29.13-2.43.05-3.41-.24-.99-.29-1.75-.75-2.29-1.38-.54-.64-.81-1.42-.79-2.36.02-1.23.55-2.43,1.57-3.6,1.02-1.17,2.42-2.11,4.2-2.82.03-1.31.05-2.62.08-3.92-.96.05-1.89.08-2.79.1-.9.02-1.73,0-2.5-.05-.03-1-.07-2-.1-2.99.66.08,1.47.12,2.43.11.96,0,1.96-.05,3.01-.14.03-1.4.06-2.79.09-4.18.97.03,1.94.06,2.91.09-.03,1.27-.05,2.55-.08,3.82.88-.12,1.69-.25,2.46-.4.76-.15,1.39-.31,1.88-.49.08.96.17,1.91.25,2.87-.62.21-1.33.39-2.13.55-.81.16-1.65.3-2.52.41-.02,1.14-.05,2.27-.07,3.41.61-.13,1.25-.22,1.91-.27.66-.05,1.35-.07,2.07-.06,1.67.04,3.09.33,4.25.86,1.16.54,2.04,1.24,2.63,2.12.59.87.87,1.84.84,2.92-.04,1.66-.58,2.96-1.61,3.89-1.03.93-2.4,1.36-4.12,1.31-1.34-.03-2.45-.39-3.35-1.08-.9-.69-1.53-1.69-1.9-3.02.4-.11.89-.29,1.47-.53.58-.24,1.04-.47,1.37-.69.4,1.45,1.22,2.19,2.46,2.21.76.02,1.35-.19,1.76-.62.41-.43.62-.98.64-1.64.02-.85-.35-1.56-1.1-2.15-.75-.58-1.9-.89-3.43-.92-1.39-.03-2.71.11-3.95.44-.05,2.16-.09,4.31-.14,6.47-.01.64-.17,1.11-.47,1.41-.3.3-.81.48-1.52.55ZM407.75,27.95c.33.03.57,0,.72-.09.15-.08.23-.24.23-.46.03-1.33.05-2.65.08-3.98-.81.47-1.46.98-1.94,1.55-.48.56-.73,1.13-.74,1.7,0,.4.13.71.42.92.29.21.7.34,1.22.36ZM423.12,19c-.41-.43-.96-.89-1.67-1.4-.7-.51-1.42-1-2.16-1.45-.74-.46-1.4-.81-1.99-1.05.57-.77,1.13-1.53,1.7-2.3.62.26,1.3.6,2.04,1.04.74.43,1.46.89,2.17,1.38.7.48,1.29.95,1.77,1.4-.18.19-.4.44-.66.76-.26.32-.5.64-.73.95-.23.31-.38.54-.47.69Z"/>
    <path class="cls-1" d="M434.72,31.94c-1.47-.09-2.61-.53-3.41-1.31-.8-.78-1.17-1.74-1.13-2.86.04-.74.3-1.4.78-1.98.48-.58,1.15-1.02,1.99-1.33.84-.31,1.81-.42,2.91-.34.29,0,.58.03.85.06.27.03.54.07.82.11,0-1,0-1.99,0-2.99-.3.01-.6.01-.9,0-.3,0-.61-.02-.9-.02-1.04-.03-1.87-.13-2.46-.31-.6-.18-1.07-.47-1.42-.87-.35-.4-.69-.95-1.02-1.65.83-.39,1.66-.77,2.49-1.16.23.47.51.78.84.92.33.14.89.22,1.69.24.26,0,.54.01.82,0,.29,0,.58,0,.88-.02,0-.47,0-.94,0-1.43,0-.49,0-.96,0-1.43-1.27.03-2.48.05-3.61.05-1.13,0-2.01-.02-2.64-.06-.02-.97-.04-1.94-.06-2.91.61.07,1.49.11,2.64.13,1.15.02,2.38.02,3.69,0,0-.63,0-1.22.02-1.79.02-.57.03-1.1.04-1.59,1.01.03,2.02.06,3.04.08-.01.47-.03.97-.04,1.51-.02.54-.02,1.1-.02,1.69,1.19-.05,2.28-.12,3.28-.21,1-.08,1.73-.18,2.21-.29-.03.95-.06,1.91-.08,2.86-.47.09-1.2.17-2.19.24-.99.07-2.08.13-3.26.18,0,.47,0,.94,0,1.42,0,.48,0,.95,0,1.42,1.03-.08,2.01-.17,2.94-.29.93-.12,1.66-.26,2.21-.42-.03,1.01-.06,2.03-.09,3.04-.65.12-1.41.23-2.3.32-.88.1-1.81.18-2.79.23.01.69.02,1.36,0,2,0,.64-.01,1.24-.01,1.79,1.28.38,2.48.87,3.61,1.46,1.13.59,2.19,1.23,3.18,1.91-.23.17-.49.42-.77.75-.28.33-.54.66-.77,1.01-.24.34-.42.63-.55.87-1.42-1.27-2.99-2.29-4.71-3.05-.05,1.3-.54,2.32-1.46,3.07-.92.75-2.37,1.06-4.37.94ZM434.9,29.16c.9.06,1.56-.05,1.97-.34.41-.28.62-.67.63-1.15,0-.24.01-.48.02-.73-.36-.08-.72-.14-1.08-.19-.36-.04-.71-.07-1.05-.08-.73-.02-1.29.09-1.68.32-.39.23-.59.52-.6.87-.02.78.58,1.21,1.79,1.3Z"/>
    <path class="cls-1" d="M454.7,31.76c-.15-.16-.39-.36-.71-.58-.32-.23-.66-.44-1-.64-.34-.2-.63-.34-.87-.42.75-.76,1.49-1.68,2.2-2.78.71-1.1,1.4-2.29,2.05-3.59.65-1.3,1.23-2.63,1.75-4-.89.08-1.75.17-2.59.28-.83.11-1.52.23-2.06.35,0-.22-.04-.53-.1-.91-.06-.38-.12-.76-.2-1.14-.08-.38-.15-.66-.24-.85.4-.02.93-.05,1.57-.08.65-.03,1.36-.07,2.15-.13.79-.05,1.57-.09,2.36-.12.35-1.08.64-2.14.88-3.18.23-1.04.4-2.01.5-2.91,1.02.22,2.05.43,3.07.65-.11.8-.28,1.64-.5,2.55-.22.9-.49,1.83-.8,2.77.35,0,.66,0,.94,0,.28,0,.52,0,.73.01.7.02,1.32.15,1.86.39.54.24.97.63,1.28,1.19.31.56.48,1.32.5,2.28.02.97-.14,2.19-.47,3.67-.41,1.86-.86,3.31-1.34,4.35-.48,1.04-1.06,1.77-1.73,2.18-.67.41-1.52.6-2.55.56-.49-.02-.96-.08-1.43-.19-.47-.11-.9-.28-1.29-.5.03-.4.05-.89.05-1.48,0-.59-.03-1.08-.11-1.46.86.41,1.7.63,2.54.65.42.02.78-.09,1.09-.31.31-.23.62-.68.92-1.37.3-.69.61-1.72.94-3.08.3-1.26.44-2.19.41-2.81-.03-.62-.18-1.03-.46-1.23-.27-.2-.62-.31-1.03-.32-.49-.01-1.07-.01-1.75.02-.59,1.6-1.26,3.16-2,4.69-.74,1.54-1.5,2.95-2.28,4.24-.78,1.29-1.54,2.38-2.28,3.26ZM473.93,25.68c-.26-.48-.62-1.05-1.09-1.7-.46-.66-.97-1.32-1.52-1.99-.55-.67-1.09-1.29-1.61-1.85-.52-.57-.98-.99-1.37-1.28.79-.61,1.58-1.23,2.37-1.84.41.32.88.76,1.42,1.31.54.55,1.09,1.15,1.66,1.79.57.64,1.1,1.28,1.58,1.91.48.62.85,1.17,1.12,1.63-.85.68-1.71,1.36-2.56,2.04Z"/>
    <path class="cls-1" d="M489.76,32.6c-1.58-.06-2.8-.25-3.67-.55-.87-.3-1.47-.79-1.8-1.45-.33-.66-.47-1.57-.43-2.74.09-2.22.17-4.43.26-6.65-1.12.08-2.15.17-3.11.28-.95.11-1.77.23-2.43.36-.06-1.03-.12-2.05-.17-3.08.66-.06,1.5-.13,2.52-.2,1.01-.08,2.12-.14,3.3-.2.07-1.86.14-3.72.22-5.59.99.04,1.99.08,2.98.12-.07,1.78-.14,3.55-.21,5.33.93-.05,1.87-.09,2.82-.12.95-.03,1.88-.06,2.79-.1.08-1.9.15-3.79.23-5.69,1.01.04,2.02.08,3.04.12-.08,1.84-.15,3.67-.23,5.51,1.15-.02,2.2-.03,3.16-.02.95,0,1.75.02,2.39.05-.04,1.04-.09,2.08-.13,3.12-.68-.08-1.49-.15-2.44-.2-.95-.05-1.98-.08-3.1-.09-.02.55-.05,1.11-.07,1.66-.04.94-.22,1.7-.54,2.29-.32.59-.84,1.05-1.56,1.35-.72.31-1.7.49-2.94.54-.05-.45-.17-.96-.36-1.51-.19-.55-.4-1-.65-1.34,1.08.03,1.85-.07,2.3-.3.45-.22.69-.62.71-1.17.02-.51.04-1.02.06-1.53-.91.02-1.84.04-2.79.07-.95.03-1.89.07-2.82.12-.09,2.18-.17,4.37-.26,6.55-.02.52.05.93.23,1.22.17.29.49.5.95.62.46.12,1.12.2,1.97.23.64.02,1.41.02,2.3-.01.89-.03,1.79-.09,2.7-.18.91-.08,1.7-.2,2.36-.34-.12.29-.22.64-.32,1.05-.1.41-.17.82-.22,1.21-.05.4-.07.72-.07.96-1.07.13-2.23.21-3.49.26-1.26.04-2.43.04-3.51,0Z"/>
    <path class="cls-1" d="M516.71,35.49c-.28-.65-.67-1.4-1.16-2.23-.49-.83-1.04-1.69-1.63-2.57-.6-.88-1.2-1.75-1.83-2.59-.62-.84-1.21-1.61-1.77-2.28-.55-.68-1.03-1.21-1.43-1.61-.57-.6-.84-1.12-.82-1.56.02-.44.33-.89.92-1.35.45-.36.99-.82,1.61-1.39.62-.56,1.27-1.18,1.94-1.86.68-.68,1.34-1.38,1.99-2.09.65-.72,1.24-1.41,1.77-2.09.53-.68.95-1.3,1.25-1.85.96.71,1.93,1.43,2.89,2.14-.41.5-.97,1.12-1.67,1.85-.71.73-1.46,1.49-2.25,2.28-.8.79-1.57,1.53-2.32,2.24-.75.7-1.39,1.29-1.91,1.75-.42.38-.42.8,0,1.28.36.4.82.93,1.35,1.58.54.66,1.1,1.39,1.7,2.19.6.8,1.19,1.6,1.78,2.41.59.81,1.12,1.57,1.59,2.27.47.71.84,1.29,1.12,1.76-.28.09-.63.24-1.04.45-.41.21-.81.43-1.19.66-.39.23-.69.45-.9.65Z"/>
    <path class="cls-1" d="M530.68,35.41c-.37-.26-.85-.53-1.45-.81-.59-.28-1.11-.48-1.56-.61.48-.62.99-1.41,1.53-2.38.54-.97,1.08-2.06,1.63-3.25.55-1.2,1.08-2.45,1.6-3.75.52-1.3.99-2.58,1.42-3.85-1,.04-1.94.05-2.82.04-.88-.01-1.61-.05-2.18-.11-.04-1.04-.09-2.09-.13-3.13.71.1,1.61.17,2.7.21,1.09.04,2.22.03,3.39-.01.27-.89.49-1.71.66-2.47.17-.76.29-1.43.35-2.01,1.08.2,2.17.41,3.25.61-.1.5-.23,1.05-.4,1.66-.17.61-.36,1.26-.57,1.96.72-.08,1.4-.18,2.03-.3.64-.12,1.17-.24,1.62-.37.11.98.21,1.96.32,2.93-.55.14-1.26.29-2.13.42-.87.14-1.82.25-2.83.33-.45,1.35-.95,2.73-1.5,4.15-.54,1.42-1.1,2.8-1.68,4.14-.57,1.34-1.14,2.58-1.69,3.7-.55,1.13-1.08,2.09-1.57,2.88ZM548.39,35.25c-1.89.19-3.66.17-5.31-.08-1.65-.24-3.07-.66-4.27-1.24-1.2-.58-2.08-1.28-2.65-2.09.57-.75,1.14-1.5,1.71-2.25.58.65,1.4,1.21,2.49,1.65,1.08.45,2.36.74,3.85.88,1.48.14,3.11.09,4.88-.14-.2.42-.36.96-.49,1.61-.13.65-.2,1.21-.21,1.65ZM548.11,26.01c-.56-.22-1.22-.43-1.96-.61-.74-.19-1.52-.34-2.34-.48-.82-.13-1.63-.23-2.42-.3-.79-.07-1.51-.1-2.15-.1.18-1.01.37-2.01.55-3.02.63,0,1.36.04,2.21.13.84.09,1.72.2,2.63.33.91.14,1.77.29,2.59.46.82.17,1.52.35,2.11.52-.4,1.02-.81,2.04-1.21,3.06ZM547.41,19.99c-.24-.34-.54-.7-.89-1.09-.35-.39-.71-.74-1.08-1.09-.37-.34-.71-.62-1.02-.85.44-.42.88-.84,1.33-1.26.27.19.6.47,1,.85.4.38.79.76,1.17,1.16.38.39.68.73.89,1-.47.43-.94.85-1.41,1.28ZM549.65,17.87c-.37-.52-.85-1.07-1.44-1.64-.59-.57-1.12-1.02-1.59-1.36.44-.42.88-.84,1.33-1.26.27.19.61.47,1.02.84.41.37.81.75,1.2,1.15.39.39.69.73.9,1-.47.43-.94.85-1.41,1.28Z"/>
    <path class="cls-1" d="M567.86,37.55c-1.48-.02-2.89-.15-4.23-.4-1.34-.25-2.53-.65-3.56-1.19-1.03-.54-1.83-1.24-2.4-2.1-.57-.86-.82-1.89-.75-3.1.07-1.18.51-2.14,1.34-2.91.83-.76,1.91-1.28,3.25-1.56,1.34-.28,2.81-.28,4.4,0-.4-.63-.77-1.28-1.12-1.95-.35-.67-.65-1.36-.93-2.07-1.68.02-3.3.03-4.87.02-1.57-.01-2.91-.06-4-.13-.07-1.02-.15-2.04-.22-3.06.95.14,2.17.24,3.64.31,1.47.06,3.01.1,4.62.08-.36-1.62-.5-3.17-.41-4.66,1.05.06,2.09.12,3.14.18-.06.73-.06,1.46,0,2.2.06.74.17,1.47.32,2.19,1.68-.06,3.26-.16,4.72-.29,1.47-.14,2.63-.32,3.48-.55.09,1,.18,2.01.26,3.01-.83.12-1.91.24-3.26.34-1.34.1-2.79.19-4.35.25.47,1.14,1.08,2.23,1.81,3.27.73,1.04,1.6,1.98,2.59,2.8-.67.67-1.34,1.34-2,2.02-.72-.48-1.49-.85-2.31-1.13-.82-.27-1.64-.44-2.44-.49-.81-.05-1.55,0-2.22.14-.67.15-1.21.41-1.63.77-.41.36-.64.82-.67,1.39-.05.85.34,1.53,1.15,2.03.82.51,1.94.88,3.36,1.11,1.42.23,3.01.34,4.75.35-.21.25-.41.57-.62.97-.21.4-.39.79-.54,1.18-.15.39-.26.72-.31,1Z"/>
    <path class="cls-1" d="M587,34.79c-.9.43-1.73.57-2.48.43-.76-.14-1.4-.67-1.94-1.59-.49-.86-.92-1.87-1.3-3.03-.38-1.15-.69-2.37-.94-3.65-.24-1.28-.41-2.56-.5-3.83-.09-1.27-.09-2.46,0-3.57,1.06.07,2.12.15,3.19.22-.11.85-.14,1.77-.1,2.78.04,1.01.14,2.03.31,3.07.16,1.04.37,2,.63,2.89.26.89.55,1.65.88,2.26.22.43.47.68.75.76.28.08.59.03.94-.16.43-.25.9-.6,1.39-1.06.49-.45.91-.9,1.25-1.33.07.26.19.57.37.91.18.34.38.68.59,1,.21.32.41.59.59.79-.51.66-1.09,1.27-1.73,1.82-.64.55-1.27.98-1.9,1.29ZM597.16,30.58c-.14-.51-.37-1.15-.68-1.92-.32-.77-.68-1.57-1.1-2.4-.42-.84-.84-1.61-1.26-2.32-.42-.71-.83-1.27-1.2-1.68.87-.47,1.74-.95,2.61-1.42.41.46.85,1.07,1.34,1.83.48.76.95,1.57,1.41,2.43.46.85.86,1.68,1.21,2.48.35.79.59,1.47.73,2.02-.55.07-1.1.2-1.66.38-.56.19-1.03.39-1.39.61Z"/>
    <path class="cls-1" d="M609.24,40.18c-.58-.18-1.02-.54-1.31-1.08-.29-.54-.35-1.1-.17-1.68.18-.58.54-1.01,1.08-1.3.54-.29,1.11-.34,1.69-.17.58.18,1.02.54,1.31,1.08.29.54.34,1.1.17,1.68-.18.58-.54,1.02-1.08,1.3-.54.29-1.1.34-1.69.17ZM609.89,33.66c.12-.52.29-1.21.5-2.06.21-.85.43-1.77.67-2.76.24-.99.48-1.96.73-2.9.25-.95.47-1.79.66-2.52.2-.73.34-1.25.44-1.56.39-1.28.79-2.57,1.19-3.85,1.2.37,2.41.73,3.61,1.1-.4,1.28-.79,2.57-1.19,3.85-.1.32-.27.83-.52,1.54-.25.71-.54,1.53-.86,2.46-.33.92-.67,1.86-1.03,2.81-.36.95-.69,1.84-.99,2.66-.31.82-.56,1.49-.75,1.99-.82-.25-1.63-.5-2.45-.75Z"/>
  </g>
  <g>
    <path class="cls-3" d="M2.06,19.99c7.73,8.42,15.41,16.87,23.04,25.33"/>
    <path class="cls-3" d="M647.86,21.05c-7.42,8.09-14.8,16.2-22.14,24.33"/>
  </g>
</svg>