<?xml version="1.0" encoding="utf-8"?>
<!-- Generator: Adobe Illustrator 25.4.1, SVG Export Plug-In . SVG Version: 6.00 Build 0)  -->
<svg version="1.1" id="レイヤー_1" xmlns="http://www.w3.org/2000/svg" xmlns:xlink="http://www.w3.org/1999/xlink" x="0px"
	 y="0px" viewBox="0 0 260 105" style="enable-background:new 0 0 260 105;" xml:space="preserve">
<style type="text/css">
	.st0{fill:#1A4369;}
	.st1{clip-path:url(#SVGID_00000081635650958516088730000017605134412637034387_);}
	.st2{fill:#FFE7D9;}
	.st3{fill:none;stroke:#1A4369;stroke-width:1.28;stroke-linecap:round;stroke-linejoin:round;}
	.st4{fill:none;stroke:#1A4369;stroke-width:0.77;stroke-linecap:round;stroke-linejoin:round;}
	.st5{fill:#FFFFFF;}
	.st6{fill:none;stroke:#1A4369;stroke-width:1.7;stroke-linecap:round;stroke-linejoin:round;}
	.st7{fill:#FFFFFF;stroke:#1A4369;stroke-width:1.7;stroke-linecap:round;stroke-linejoin:round;}
	.st8{fill:none;stroke:#B2D2D9;stroke-width:0.85;stroke-linecap:round;stroke-linejoin:round;}
	.st9{fill:none;stroke:#1A4369;stroke-width:1.42;stroke-linecap:round;stroke-linejoin:round;}
	.st10{fill:none;stroke:#1A4369;stroke-width:0.85;stroke-linecap:round;stroke-linejoin:round;}
	.st11{fill:#486887;}
	.st12{fill:#B2D2D9;}
	.st13{fill:none;stroke:#FFFFFF;stroke-width:0.57;stroke-linecap:round;stroke-linejoin:round;}
	.st14{fill:#B2D2D9;stroke:#1A4369;stroke-width:1.11;stroke-linecap:round;stroke-linejoin:round;}
	.st15{fill:#B2D2D9;stroke:#1A4369;stroke-width:1.13;stroke-linecap:round;stroke-linejoin:round;}
	.st16{fill:none;stroke:#1A4369;stroke-width:1.13;stroke-linecap:round;stroke-linejoin:round;}
	.st17{fill:#1A4369;stroke:#1A4369;stroke-width:1.7;stroke-linecap:round;stroke-linejoin:round;}
	.st18{fill:#1A4369;stroke:#1A4369;stroke-width:0.85;stroke-linecap:round;stroke-linejoin:round;}
	.st19{fill:#3C5F7F;}
	.st20{fill:#315578;}
	.st21{fill:#1A4369;stroke:#1A4369;stroke-width:1.87;stroke-linecap:round;stroke-linejoin:round;}
	.st22{fill:#FFFFFF;stroke:#1A4369;stroke-width:1.13;stroke-linecap:round;stroke-linejoin:round;}
	.st23{fill:none;stroke:#1A4369;stroke-width:2.83;stroke-linecap:round;stroke-linejoin:round;}
	.st24{fill:none;stroke:#1A4369;stroke-width:8;stroke-linecap:round;stroke-linejoin:round;}
</style>
<g>
	<g id="レイヤー_2_00000126284619278304637170000014809437252388167599_">
		<g id="情報">
			<polygon class="st0" points="130,104.5 140,91.2 120,91.2 			"/>
			<path class="st0" d="M20.5,52.2h219c11.3,0,20.5,9.2,20.5,20.5l0,0c0,11.3-9.2,20.5-20.5,20.5h-219C9.2,93.2,0,84,0,72.7l0,0
				C0,61.3,9.2,52.2,20.5,52.2z"/>
			<g>
				<defs>
					<rect id="SVGID_1_" x="19" y="-0.9" width="110" height="94"/>
				</defs>
				<clipPath id="SVGID_00000029038811329379546490000007613778812830713519_">
					<use xlink:href="#SVGID_1_"  style="overflow:visible;"/>
				</clipPath>
				<g style="clip-path:url(#SVGID_00000029038811329379546490000007613778812830713519_);">
					<path class="st2" d="M79.7,106.7c0.2-0.9,0.6-1.7,0.9-2.6c0.7-1.2,1.5-2.3,2.6-3.2c0.3-2.8,4.8-2.3,4.8,0.3
						c0.5,0.1,0.9,0.5,1,1c0.6,1.1,1.2,2.2,1.7,3.4c0.1,0.7-0.6,1.8-0.8,2.6C86.5,107.4,83.1,106.9,79.7,106.7z"/>
					<path class="st2" d="M88.8,101.7c1.2,1.2,1.8,2.9,1.7,4.6l-0.1,1.2c0.5,0.4,0.7,1,0.8,1.6c-0.1,1.1-0.5,2.1-1.1,3
						c-0.4,0.5-1.1,0.8-1.8,0.6c-0.5,1-1.7,1.5-2.8,1c-0.8,0.6-1.9,0.7-2.8,0.2c-0.5,0.4-1.2,0.6-1.9,0.5c-0.7-0.1-1.1-0.6-1.8-1.6
						c-0.5-0.7-0.7-1.6-0.7-2.4c0.1-1.9,0.7-3.8,1.6-5.4c0.7-1.3,1.6-2.3,2.2-3.4L88.8,101.7z"/>
					<path class="st3" d="M82.6,100.7l-0.5,0.8c-0.6,1-1.6,2-2.2,3.4c-0.9,1.7-1.5,3.5-1.6,5.4c0,0.9,0.2,1.7,0.7,2.4
						c0.7,1,1.1,1.4,1.8,1.6c0.7,0.1,1.3-0.1,1.9-0.5c0.9,0.5,2,0.5,2.8-0.2c1,0.5,2.3,0,2.8-1c0.7,0.2,1.3-0.1,1.8-0.6
						c0.6-0.9,1-1.9,1.1-3c0-0.6-0.3-1.2-0.8-1.6l0.1-1.2c0.1-1.7-0.5-3.4-1.7-4.6l-0.2-0.5"/>
					<path class="st4" d="M90.1,107.1c-0.2,0.9-0.4,1.7-0.8,2.6l0.1,0.6"/>
					<path class="st4" d="M83.1,113.7c-0.5-0.3-0.9-0.7-1.3-1.1"/>
					<path class="st4" d="M86.2,113.6c-0.6-0.2-1.2-0.5-1.7-0.9"/>
					<line class="st4" x1="88.6" y1="112.4" x2="87.3" y2="112.2"/>
					<path class="st5" d="M105.7,77.2c1-1.4,1.3-3,0-4.1c-1.1-0.9-1.9-2.7-3.1-3.7c-1.4-1.2-2.8-2.4-3.7-3.2c-2-1.9-3.8-4-5.4-6.2
						c-2.5-3.1-5.1-6.1-8-8.8c-2-1.8-5.8-4.3-7.6-4.7s-3.7,0.3-5.1,0.6c-1.6,0.5-3.1,1.1-4.5,1.9c-0.4,0.2-0.8,0.4-1.2,0.6
						c-2.5,1.5-2.1,5.1,1.4,6.7c1.3,0.7,2.6,1.3,4,1.8c1.2,0.5,1.4,1.3,2.3,1.7c2.2,0.7,4.2,1.9,5.9,3.3c3,2.3,5.8,4.7,8.5,7.2
						c1.4,1.3,2.8,2.6,4.1,3.9c0.7,0.7,1.4,1.5,2.2,2.2l-0.1,0.2l0,0c-2.4,3.8-4.4,6.1-6.5,9.2l8.9,7.1c2.3-3.8,4.5-7.6,6.4-11.6
						l0,0l0.2-0.3C105,80,105.1,78.5,105.7,77.2z"/>
					<path class="st6" d="M106.5,77.1c1-1.5,0.8-3.4-0.4-4.7c-1.1-0.9-2.3-1.9-3.6-3c-1.4-1.2-2.8-2.4-3.7-3.2c-2-1.9-3.8-4-5.4-6.2
						c-2.5-3.1-5.1-6.1-8-8.8c-2-1.8-5.8-4.3-7.6-4.7s-3.7,0.3-5.1,0.6s-4.7,1.2-4.7,1.2c-0.4,0.1-1,0.4-1.2,0.5"/>
					<path class="st6" d="M72.4,58.9c0.9,0.3,1.7,0.6,2.4,0.8c2.2,0.7,4.2,1.9,5.9,3.3c2.1,1.6,4,3.5,5.9,5.2c3,2.6,5.8,5.4,8.7,8"
						/>
					<path class="st2" d="M90,86.9c-0.9,1.6-3.6,5.8-4.5,7.2l-1.2,1.9c-0.3,0.4,0.2,1.2,0.2,1.2l3.4,4c0.2-0.2,1.2-0.2,1.6-0.7
						c1.2-1.5,3.3-4,5.4-6.5c0.1-0.1,1.5-2.1,1.6-2.2L90,86.9z"/>
					<path class="st2" d="M88,101.2c-1.5,2-6-1.1-3.4-4C85.7,97.2,88.8,99.8,88,101.2z"/>
					<path class="st6" d="M106.5,77.1c-0.8,1.4-1.5,2.7-2.1,3.9c-2.9,4.6-6,8.9-9.4,13.1c-2.8,3.3-5.6,6.7-6.2,7.6"/>
					<path class="st6" d="M98.2,71.7c-0.8,1.2-1.4,2.2-1.9,3.1l-1.8,3.3l-1.4,2.5c-0.8,1.4-3.5,6.3-4.4,8s-2.4,4.1-3.3,5.6l-1.6,2.6
						"/>
					<path class="st6" d="M104.2,81.3c-1.9,3.8-4.1,7.5-6.4,11.2c-3.2-2.2-6.4-4.5-8.9-6.4c2.3-3,4.5-6.1,6.4-9.4"/>
					<path class="st7" d="M102.6,86.8c0,0-2.6,3.4-4.7,5.6c-3.2-2.2-6.4-4.7-8.9-6.6c0.9-1.8,1.8-3.5,2.9-5.2L102.6,86.8z"/>
					<line class="st8" x1="92.2" y1="82.8" x2="100.2" y2="87.7"/>
					<path class="st5" d="M59.5,49.6c-0.2-1.3-1.3-2.4-2.7-2.6c-0.4-0.1-0.9-0.2-1.3-0.2c-1.6-0.3-3.3-0.4-4.9-0.3
						c-0.7,0.1-1.5,0.2-2.4,0.3c-0.9,0.1-1.8,0.4-2.6,0.9c-1.1,0.8-2.1,1.8-2.9,3c-1,1.3-1.9,2.6-2.7,4c-0.7,1.4-1.3,2.8-1.9,4.2
						c-0.2,0.6-0.4,1.1-0.6,1.7c0-0.2,0-0.4,0-0.6l-11.4,0.3c0.6,4.4,1.5,8.7,2.6,13l0,0c0,0.1,0,0.2,0.1,0.3
						c0.2,1.3,1.3,2.8,1.6,4.3c-0.2,1.1,0.1,2.3,0.8,3.2c0.7,1.3,2.1,2.2,3.6,2.2c1.5,0.1,2.9-0.6,3.7-1.9c0.5-0.7,1.1-1.3,1.7-1.8
						c1.1-1.1,1.5-2.6,2.1-4c0.4-0.8,0.8-1.7,1.2-2.6s0.8-1.8,1.2-2.5c0.8-1.5,1.4-2.7,2.1-3.8c0.7-1.1,1.4-2.2,2.2-3.3
						c0.5-0.7,0.9-1.3,1.5-1.9c0.8-0.9,1.6-1.7,2.6-2.4c0.8-0.6,0.6-1.5,1.6-2.4c1.1-0.9,2.2-2,3.1-3.1
						C59.1,52.7,59.7,51.1,59.5,49.6z"/>
					<path class="st6" d="M36.8,63.4c0.4-1.4,0.9-3,1.5-4.5c0.5-1.4,1.2-2.8,1.9-4.2c0.8-1.4,1.7-2.7,2.7-4c0.8-1.1,1.8-2.1,2.9-3
						c0.8-0.5,1.7-0.8,2.6-0.9c0.9-0.2,1.8-0.2,2.4-0.3c1.4-0.3,4.8-0.4,4.8-0.4c0.4,0,0.8,0,1.2,0"/>
					<path class="st6" d="M55.1,57.6c-0.7,0.6-1.4,1.1-1.9,1.6c-0.9,0.7-1.8,1.5-2.6,2.4c-0.6,0.7-1,1.3-1.5,1.9
						c-0.5,0.8-1,1.5-1.5,2.4c-0.4,0.8-0.8,1.6-1.4,2.5c-0.8,1.4-1.6,2.8-2.2,4.2c-0.8,1.8-1.5,3.3-2.2,4.8s-1.4,2.9-2.3,4.3
						c-0.5,1-1.5,1.8-2.5,2.1c-1.2,0.2-2.4,0.2-3.5-0.1c-0.9-0.3-1.7-0.9-2.2-1.7"/>
					<path class="st2" d="M36.1,59.9c-0.4-1.8-1-6.8-1.2-8.4c-0.1-0.9-0.2-1.7-0.3-2.2s-1-0.8-1-0.8l-5.2-0.8c0,0.3-0.8,0.9-0.8,1.5
						c0,1.9,0.1,5.2,0,8.4c0,0.1,0.2,2.6,0.2,2.8L36.1,59.9z"/>
					<path class="st2" d="M28.4,47.6c-0.1-2.5,5.4-3,5.2,0.8C32.8,49.2,28.7,49.3,28.4,47.6z"/>
					<path class="st6" d="M27.6,47.7c0.1,1.1,0.1,5.5,0.1,9.8c0.1,5.4,0.5,10.8,1.2,16.1c0.2,1.4,0.5,2.7,0.8,4.3l1.6,4"/>
					<path class="st6" d="M39.5,76.8c-0.2-1.5-0.3-2.6-0.5-3.6c-0.4-2-0.7-3.6-0.7-3.6s-0.2-1.3-0.6-2.8s-1.4-7.1-1.7-8.9
						s-0.8-4.7-1.1-6.4s-0.4-3.1-0.4-3.1"/>
					<path class="st6" d="M28.8,73.4c0,0-1.9-8.4-2.3-12.7c3.8-0.4,7.8-0.7,11-0.8c0.2,3.8,0.5,7.6,1.1,11.3"/>
					<path class="st7" d="M26.5,68c0,0-0.2-4.2,0-7.3c3.8-0.4,7.9-0.6,11.1-0.7c0.5,1.9,0.9,3.9,1.1,5.9L26.5,68z"/>
					<line class="st8" x1="37.1" y1="64.4" x2="27.8" y2="65.9"/>
					<path class="st2" d="M33.8,48.2c0.2-1,1.7-1.8,2.2-2.7c0.9-1.6,1.3-3.4,1.1-5.2c-0.3-1.9-1-3.7-1.4-5.6
						c-0.5-2.1-0.6-4.2-0.9-6.3c-0.1-1.1-0.3-2.1-0.6-3.1c-0.1-1-0.5-1.9-1.1-2.6c-0.1-0.1-0.2-0.1-0.3-0.2c-0.4-0.2-1-0.1-1.2,0.4
						c0,0.1-0.1,0.1-0.1,0.2c-0.1,0.3-0.1,0.7,0,1c0.2,2.2,0.6,4.9,0.8,7.1c0.2,0.9,0.1,1.8-0.3,2.6c-0.6-0.5-1.5-0.7-2.3-0.5
						c-0.4,0.1-0.7,0.4-0.9,0.8c-0.2,0.5-0.2,1-0.1,1.5l-0.8,0.2c-0.4,0.1-0.7,0.3-0.9,0.7c-0.2,0.3-0.4,0.8-0.9,0.9
						c-2.6,0.5-3,3.8-2.1,5.8c0.6,1.5,1.5,2.8,2.8,3.7c0.7,0.6,1.8,1.3,1.8,1.3C29,51.2,33.6,51.1,33.8,48.2z"/>
					<path class="st9" d="M34.5,48.2c0.4-1,0.9-1.9,1.6-2.7c0.9-1.6,1.3-3.4,1.1-5.2c-0.3-1.9-1-3.7-1.4-5.6
						c-0.5-2.1-0.6-4.2-0.9-6.3c-0.1-1.1-0.3-2.1-0.6-3.1c-0.1-1-0.5-1.9-1.1-2.6c-0.1-0.1-0.2-0.1-0.3-0.2c-0.4-0.2-1-0.1-1.2,0.4
						c0,0.1-0.1,0.1-0.1,0.2c-0.1,0.3-0.1,0.7,0,1c0.2,2.2,0.6,4.9,0.8,7.1c0.2,0.9,0,1.8-0.3,2.6c-0.6-0.5-1.5-0.7-2.3-0.5
						c-0.4,0.1-0.7,0.4-0.9,0.8c-0.2,0.5-0.2,1-0.1,1.5c0,0-0.7,0.2-0.8,0.2c-0.4,0.1-0.7,0.3-0.9,0.7c-0.2,0.3-0.4,0.8-0.9,0.9
						c-2.6,0.5-3,3.8-2.1,5.8c0.6,1.5,1.5,2.8,2.8,3.7c0.5,0.4,0.9,0.9,1.1,1.5"/>
					<path class="st10" d="M36.6,38.5c-0.2-0.8-0.7-1.6-1.5-2c-0.4-0.1-0.7-0.1-1.1-0.2c-0.8-0.1-1.6-0.1-2.4-0.1
						c-0.6,0-1.8,0-1.8,0.8c-0.1,0.6,0.6,1.1,1.1,1.3c0.8,0.4,1.6,0.7,2.5,0.9c0.1,0.7,0.3,1.4,0.5,2"/>
					<path class="st10" d="M28.2,35.9c1-0.2,1.3,0.6,1.5,1"/>
					<path class="st10" d="M31.9,35.2c0.1,0.4,0.2,0.8,0.2,1.2"/>
					<path class="st10" d="M27.1,38.5c0.7,1,1.4,1.9,2.2,2.7c0.2,0.3,0.5,0.5,0.9,0.4c0.2,0,0.3-0.1,0.5-0.2
						c0.3-0.1,0.5-0.3,0.7-0.6c0.1-0.2,0.1-0.4,0-0.6c-0.3-0.8-0.6-1.5-1.1-2.2"/>
					<path class="st10" d="M25.1,41.2c0.4,0,0.8,0.1,1.1,0.4c0.6,0.7,1.4,1.7,2.4,0.9c0.5-0.5,0.5-1.3,0.1-1.8"/>
					<path class="st10" d="M33.1,39.5c-0.3,0.6-1,0.9-1.6,0.7"/>
					<path class="st10" d="M30.3,43c0-0.6,0.2-1.2,0.7-1.7"/>
					<path class="st0" d="M79.9,30c-0.8-0.9-2.1-1.2-3.2-1c-1.7,0.4-3.1,1.7-3.4,3.4c-1.1,0.5-1.8,1.7-1.7,2.9c0.1,1,0.7,2,1.6,2.5
						c1.5,1.1,3.6,1.2,5.2,0.2C81,36.6,82.4,32.4,79.9,30z"/>
					<path class="st11" d="M73.4,34.2c-0.4-0.5-0.5-1.1-0.4-1.7c0.2-0.6,0.5-1.1,1-1.5c1-0.8,2.4-0.9,3.5-0.3c0.6,0.3,1,0.7,1.4,1.2
						c0.3,0.5,0.6,1,0.8,1.6c0.4,1.1,0.2,2.4-0.4,3.3c0,0-0.1,0-0.1,0c0,0,0,0,0,0c0,0,0-0.1,0-0.1c0.4-1,0.3-2.1-0.1-3
						c-0.2-0.5-0.5-0.9-0.8-1.3c-0.3-0.4-0.6-0.7-1.1-0.9c-0.9-0.4-1.9-0.4-2.7,0.1c-0.9,0.5-1.3,1.6-1,2.6c0,0,0,0.1,0,0.1
						C73.4,34.3,73.4,34.3,73.4,34.2z"/>
					<path class="st11" d="M72.6,35.5c0.5,0.4,1.1,0.6,1.8,0.7c0.6,0,1.2-0.1,1.8-0.3c1.2-0.6,2.1-1.6,2.7-2.8c0,0,0.1,0,0.1,0
						c0,0,0,0.1,0,0.1c-0.1,0.7-0.4,1.4-0.8,2c-0.4,0.6-1,1.1-1.7,1.5C75.8,37,75,37.1,74.2,37c-0.7-0.2-1.4-0.7-1.8-1.3
						c0,0,0-0.1,0-0.1c0-0.1,0-0.1,0.1-0.1S72.6,35.4,72.6,35.5L72.6,35.5z"/>
					<rect x="49.5" y="48.7" class="st12" width="26.2" height="56"/>
					<path class="st13" d="M65.8,49.7c-8.3,21.3-5.1,39.5-12.3,56.5"/>
					<path class="st13" d="M61.5,45.6c-9.5,21.5-5.1,39.5-12.3,56.5"/>
					<path class="st13" d="M70.8,48.4c-4,19.8-6,42.9-12,59.3"/>
					<path class="st13" d="M75.2,53.5c-7.3,21.8-4.2,39-10.5,57"/>
					<line class="st6" x1="83.4" y1="99.8" x2="43.1" y2="99.8"/>
					<path class="st2" d="M70.6,51.4l0.2-5.8l0,0c-1.8-0.3-3.5-1.7-3.7-3c0,0,0-0.1,0-0.1c-0.1-0.4-0.1-0.8,0-1.3
						c0.1-0.7,0.4-1.3,0.8-1.4l-0.3-0.8c0.4-0.1,0.3-0.9-0.4-1.3c-1.2-0.5-2.5-0.8-3.9-0.7c-1.3,0-2.6,0.2-3.8,0.6
						c-0.8,0.3-1.1,1.1-0.7,1.3l-0.1,0.8l0,0c0.4,0.1,0.7,0.6,0.8,1.3l0,0c0,0.1,0,0.2,0,0.4c0,0.3,0,0.6-0.1,0.9c0,0,0,0.1,0,0.1
						c-0.2,1.3-1.9,2.7-3.7,3l0.6,5.8C60,52.6,65.6,52.5,70.6,51.4z"/>
					<path class="st2" d="M67,42.6C67,42.6,67,42.6,67,42.6c-0.1-0.5-0.1-0.9,0-1.3c0.1-0.7,0.4-1.3,0.8-1.4l-0.2-0.8
						c0.4-0.1,0.3-0.9-0.4-1.3c-1.2-0.5-2.5-0.8-3.9-0.7c-1.3,0-2.6,0.2-3.8,0.6c-0.8,0.3-1.1,1.1-0.7,1.3l-0.1,0.8l0,0
						c0.4,0.1,0.7,0.6,0.8,1.3l0,0c0,0.1,0,0.2,0,0.4c0,0.3,0,0.6-0.1,0.9v0.1C61.9,43.3,64.5,43.3,67,42.6z"/>
					<path class="st9" d="M57,51.7c4.1,0.7,8.3,0.7,12.5,0"/>
					<path class="st6" d="M67.8,39.4c-0.7,0.2-1,2-0.8,3.3s1.9,2.7,3.7,3c1.7,0.3,3.5,0.7,5.1,1.3"/>
					<path class="st6" d="M58.7,39.4c0.6,0.2,1,2,0.7,3.3s-1.9,2.7-3.7,3c-1.7,0.3-3.5,0.7-5.1,1.3"/>
					<path class="st6" d="M67,41.3c0,0,0,0.9,0,2.1c0,1,0.2,1.9,0.5,2.8"/>
					<path class="st6" d="M59.5,41.3c0,0,0,0.9,0,2.1c0,1-0.2,1.9-0.5,2.8"/>
					<path class="st5" d="M49.8,116.6c2.7,0.3,7.2-23,6.8-32.4c-0.5-11.4-1.3-14.3-1.2-22c0.1-3.5,1-14.9,1.1-16.4h-1.3
						c-1.6,0.5-3.1,1.5-4.4,2c-3.6,1.1-1.2,8.3-1.8,11l-1.5,3c-1.3,3.4-1.7,8.2-0.3,11.9c0.7,1.9,0.7,4.8,0.6,7.3l-0.7,3.2
						c-0.7,5-4.4,15.9-5.7,21.3c-0.8,3.2-1.5,6.6-1.5,7.5C42.6,115.4,46.1,116.7,49.8,116.6z"/>
					<path class="st5" d="M76.7,116.6c-3.6-0.1-7.2-23-6.8-32.4c0.5-11.4,1.3-14.3,1.2-22c-0.1-3.5-1-14.9-1.1-16.4h1.3
						c1.6,0.5,3.1,1.5,4.4,2c3.6,1.1,1.2,8.3,1.8,11l1.5,3c1.3,3.4,1.7,8.2,0.3,11.9c-0.7,1.9-0.7,4.8-0.6,7.3l0.7,3.2
						c0.7,5,4.4,15.9,5.7,21.3c0.8,3.2,1.5,6.6,1.5,7.5C83.9,115.4,80.4,116.7,76.7,116.6z"/>
					<path class="st6" d="M56.6,45.6c0,0-0.2,1.5-0.3,3.7s-1.4,11.4-1,17s0.8,10.3,1.1,16.2c0.1,4.5-0.1,9-0.7,13.4
						c-0.8,6.4-2.1,12.7-3.9,18.8c-0.4,1.4-1.9,2.3-3.3,2c-3.1-0.7-6.9-1.8-8.9-3.3c0-0.8,1.3-7.7,2.1-10.9c0.6-2.7,1.4-5.4,2.4-8
						c1.3-3.4,2.3-6.9,3-10.5c0.4-3,0.3-6-0.3-8.9c-0.6-2.6-0.9-5.2-0.9-7.9c0.1-2,0.5-4,1.2-6c0.3-0.8,0.5-1.3,0.7-1.8"/>
					<path class="st6" d="M69.9,45.6c0,0,0.2,1.5,0.3,3.7s1.4,11.4,1,17S70.3,76.6,70,82.6c-0.1,4.5,0.1,9,0.7,13.4
						c0.9,6.4,2.2,12.8,3.9,19c0.4,1.3,1.7,2.2,3.1,2c3.2-0.4,7.2-1.4,9.1-3.5c0-0.8-1.3-7.7-2.1-10.9c-0.6-2.7-1.4-5.4-2.4-8
						c-1.3-3.4-2.3-6.9-3-10.4c-0.4-3-0.3-6,0.3-8.9c0.6-2.6,0.9-5.2,0.9-7.9c-0.1-2-0.5-4-1.2-6c-0.3-0.8-0.6-1.3-0.7-1.8"/>
					<path class="st5" d="M55.2,51.2c-0.1-1.7,0.1-3.4,0.6-5c0.3-1,1-1.3,1.8-1.9s1.5-1,1.5-1.9c-2.6,0.5-4.7,1.1-6.2,4.4
						c-0.2,3-0.5,6.1,0.1,9.3L55.2,51.2z"/>
					<path class="st9" d="M59.1,42.8c-1.3,0.1-2.5,0.5-3.6,1.2c-1,0.6-1.9,1.4-2.5,2.4"/>
					<path class="st5" d="M71.2,50.7c-0.2-1.5-0.1-3.1-0.5-4.5c-0.3-1-1-1.3-1.8-1.9s-1.5-1-1.5-1.9c2.6,0.5,4.7,1.1,6.2,4.4
						c0.2,3,0.6,6.1-0.1,9.3L71.2,50.7z"/>
					<path class="st9" d="M67.4,42.8c1.3,0.1,2.5,0.5,3.6,1.2c1,0.6,1.9,1.4,2.5,2.4"/>
					<path class="st10" d="M75.4,94.7c0.1,1.2,0.7,2,1.9,2c2,0,3.9-0.4,5.8-1.1"/>
					<path class="st10" d="M51.2,94.7c-0.1,1.2-0.7,2-1.9,2c-2,0-3.9-0.4-5.8-1.1"/>
					<path class="st14" d="M68.5,45.5c-3.5,1-7.2,1-10.8,0c0.1-1,0.4-3.1,0.7-4c3.2,0.4,6.4,0.4,9.5,0
						C68.1,42.4,68.5,44.8,68.5,45.5z"/>
					<path class="st15" d="M54.4,41.4c2.3-0.5,3.6,0.1,5.5,0.8l0.1,0.6l-7.2,4C52.6,44.3,53.3,42,54.4,41.4z"/>
					<path class="st15" d="M57.5,41.9c-1.9,0.8-3.6,2-5,3.6c-1.9,3.2-1.1,5.3-2.2,10.4c3.2-1.2,6.1-3.3,8.2-6
						c0.1-2.5,1.8-6.1,2.2-7.7C60.3,41.6,59.1,41.3,57.5,41.9z"/>
					<path class="st16" d="M60,42.6c-1.8,0.5-3.2,1.9-3.8,3.7"/>
					<path class="st2" d="M78.8,25.1c0.3,0.1-0.1-0.7,0.1-0.8c0.5-0.2,1.2,0.1,1.8,0.8c1.2,1.2,0.9,3.8,0,5.1
						c-0.8,1.1-2.1,1.8-3.4,1.8c-0.3,0-0.5-0.8-1.5-0.4c-1,0.4-0.8-2.1-0.1-3.9C76.2,26.3,77.4,25.4,78.8,25.1z"/>
					<path class="st6" d="M78.9,24.3c1.8-0.2,2.5,1.9,2.5,3.4c-0.1,2.3-1.3,3.8-4.1,4.2c-0.4,0-0.7,0.1-1,0.3"/>
					<path class="st2" d="M47.7,25.1c-0.3,0.1,0.1-0.7-0.1-0.8c-0.5-0.2-1.2,0.1-1.8,0.8c-1.2,1.2-0.9,3.8,0,5.1
						c0.8,1.1,2.1,1.8,3.4,1.8c0.3,0,0.5-0.8,1.5-0.4c1,0.4,0.8-2.1,0.1-3.9C50.2,26.3,49.1,25.4,47.7,25.1z"/>
					<path class="st6" d="M47.6,24.3c-1.8-0.2-2.5,1.9-2.5,3.4c0.1,2.3,1.3,3.8,4.1,4.2c0.4,0,0.7,0.1,1,0.3"/>
					<path class="st2" d="M61,3.6c-1.7,0.3-3.3,0.8-4.8,1.5c-1.6,1-3.1,2.2-4.4,3.6c-1.4,1.8-2.5,4-3,6.2c-0.4,1.9-0.6,3.7-0.7,5.7
						c0.1,1,0.2,2.3,0.2,2.9c0.5,3.2,1.3,6.6,2.3,7.9c0.3,0.8,0.2,1.3,0.4,1.7c0.4,0.9,0.9,1.8,1.4,2.6c0.5,0.7,1.1,1.3,1.7,1.8
						c0.7,0.5,1.4,1,2.1,1.4c0.3,0.2,1.7,0,3.1,0.4c1.2,0.3,2.5,0.5,3.8,0.4l0,0c1.3,0.1,2.5-0.1,3.8-0.4c1.4-0.4,2.8-0.2,3.2-0.4
						c0.7-0.4,1.4-0.9,2.1-1.4c0.6-0.5,1.2-1.2,1.7-1.9c0.5-0.8,1-1.7,1.5-2.6c0.2-0.4,0.2-1,0.4-1.7c1-1.3,1.8-4.6,2.3-7.9
						c0-0.6,0.2-1.9,0.2-2.9c0-1.9-0.2-3.8-0.7-5.6c-0.5-2.3-1.6-4.4-3-6.2c-1.3-1.4-2.8-2.6-4.4-3.6c-1.5-0.8-3.1-1.3-4.8-1.5
						L61,3.6z"/>
					<path class="st6" d="M59.3,40.2c-1-0.3-2-0.7-2.9-1.2c-0.7-0.4-1.4-0.9-2.1-1.4c-0.6-0.5-1.2-1.2-1.7-1.8
						c-0.5-0.8-1-1.7-1.4-2.6c-0.2-0.4-0.5-0.7-0.8-1"/>
					<path class="st6" d="M67.3,40.2c1-0.3,2-0.7,2.9-1.2c0.7-0.4,1.4-0.9,2.1-1.4c0.6-0.5,1.2-1.2,1.7-1.8c0.5-0.8,1-1.7,1.5-2.6
						c0.2-0.4,0.5-0.7,0.8-1"/>
					<path class="st17" d="M63,2.3c2-0.1,5.4,0.1,7.3,2.6c3.7,1.4,6.4,3.4,8.2,7.6c1.5,3.6,1.8,7.5,1.1,11.3c-0.5,0.3-1,0.5-1.4,0.8
						l-1.2,1.5c0-0.4,0-1.1,0.1-2c0-1.6-0.1-3.2-0.4-4.9c-0.3-2.7-1.3-5.3-2.9-7.5c-1.4-1.8-5.5-3.5-9.8-3.6
						c-4.1,0.1-7.7,0.6-10.6,3.4c-2.4,2.3-2.3,5.1-2.6,7.6c-0.2,1.7-0.8,2.8-1,4.3l1,3.1c-0.5-0.8-1.2-1.5-1.9-2l-1.4-0.8
						c-1-3.4-0.7-7,1-10.1C51.3,8,56.6,2.7,63,2.3z"/>
					<path class="st0" d="M76.1,25.4c-0.1-2.7-0.7-5.4-1.9-7.9c-0.2-2.1-2-4.2-4.6-5.4c-0.6-0.3-1.2-0.5-1.8-0.7
						c-1.3-0.4-2.7-0.6-4.1-0.5h-0.2c-0.4,0-0.8,0.1-1.2,0.1l0.9-5.2c2.9,0,10.6,0.2,10.6,0.2C74.8,10.3,78.5,20.8,76.1,25.4z"/>
					<path class="st18" d="M50.6,26.9c1.2-1.8,2.2-3.7,2.8-5.8c1.1-2.9,2.9-5.2,6.5-8.2c4.5-3.9,8.7-5,14.5-4.7
						C67.2,0.7,61.1,2,52.8,7.5C49.7,9.5,47.2,18,47.2,18C47.3,21.3,48.5,24.4,50.6,26.9z"/>
					<path class="st19" d="M66.8,5.8c-1.1-0.3-2.2-0.3-3.3,0.1c-1.1,0.4-2.1,0.9-3,1.6c-1.9,1.4-3.5,3.1-4.8,5
						c-1.3,1.9-2.3,4.1-3,6.3c-0.4,1.1-0.6,2.3-1.1,3.4c-0.2,0.6-0.5,1.2-0.8,1.7c-0.4,0.5-0.9,1-1.5,1.2c-0.1,0.1-0.3,0-0.4-0.1
						c-0.1-0.1,0-0.3,0.1-0.4c1-0.6,1.6-1.5,1.9-2.6c0.4-1.1,0.7-2.3,1-3.4c0.6-2.3,1.7-4.5,3-6.5c1.4-2,3.1-3.7,5-5.2
						c1-0.7,2.1-1.3,3.2-1.7c1.2-0.4,2.5-0.4,3.7,0c0.1,0.1,0.2,0.2,0.2,0.4S66.9,5.8,66.8,5.8L66.8,5.8z"/>
					<path class="st20" d="M69.7,12c-0.6-0.3-1.2-0.5-1.8-0.7c-1.3-0.4-2.7-0.6-4.1-0.5h-0.2C66.9,7.9,69.8,9,69.7,12z"/>
					<path class="st19" d="M48.3,23.8c0.5-0.5,0.9-1.1,1.1-1.8c0.2-0.7,0.3-1.5,0.4-2.2c0-0.8,0.1-1.6,0.2-2.4
						c0.1-0.8,0.4-1.6,0.8-2.3c0.1-0.1,0.3-0.2,0.4-0.1c0.1,0.1,0.2,0.2,0.1,0.4c-0.5,1.5-0.7,3-0.7,4.6c0,0.8-0.2,1.6-0.5,2.4
						c-0.3,0.8-0.8,1.5-1.6,2c-0.1,0.1-0.3,0-0.4-0.2C48.1,24,48.2,23.9,48.3,23.8L48.3,23.8z"/>
					<path class="st0" d="M59.1,20.8c-0.3,0-0.6,0-0.9,0s-0.6,0-0.9,0.1s-0.6,0.1-0.9,0.1l-0.9,0.1c-0.2,0-0.3-0.1-0.3-0.2
						c0,0,0,0,0,0c0-0.1,0-0.2,0.2-0.3l0,0c0.3-0.1,0.6-0.3,0.9-0.4c0.3-0.1,0.7-0.1,1-0.2c0.3,0,0.7,0,1,0c0.3,0,0.7,0.1,1,0.2l0,0
						c0.1,0.1,0.2,0.2,0.2,0.4C59.4,20.8,59.2,20.9,59.1,20.8z"/>
					<path class="st0" d="M67.4,20.8c0.3,0,0.6,0,0.9,0s0.6,0,0.9,0.1s0.6,0.1,0.9,0.1l0.9,0.1c0.2,0,0.3-0.1,0.3-0.2c0,0,0,0,0,0
						c0-0.1,0-0.2-0.2-0.3l0,0c-0.3-0.1-0.6-0.3-0.9-0.4c-0.3-0.1-0.7-0.1-1-0.2c-0.3,0-0.7,0-1,0c-0.3,0-0.7,0.1-1,0.2l0,0
						c-0.1,0.1-0.2,0.2-0.2,0.4c0,0,0,0,0,0C67.1,20.8,67.2,20.8,67.4,20.8z"/>
					<path class="st21" d="M56.7,26.2c0,0.6,0.2,1,0.7,1s0.7-0.5,0.7-1s-0.2-1.4-0.7-1.4S56.7,25.7,56.7,26.2z"/>
					<path class="st0" d="M58.8,24.5c-0.2-0.1-0.4-0.2-0.5-0.2c-0.1,0-0.3-0.1-0.4-0.1c-0.3,0-0.7,0-1,0.1c-0.3,0-0.7,0.1-1,0.2
						c-0.2,0-0.3,0.1-0.5,0.2c-0.1,0-0.1,0-0.2,0.1c-0.1,0.1-0.2,0.1-0.3,0.2c-0.2,0.1-0.5,0-0.6-0.2c-0.1-0.1-0.1-0.3,0-0.4
						c0.1-0.1,0.1-0.2,0.2-0.2c0.1-0.1,0.2-0.2,0.3-0.3c0.2-0.1,0.4-0.3,0.6-0.4c0.4-0.2,0.8-0.3,1.2-0.4c0.4-0.1,0.9-0.1,1.4,0
						c0.2,0.1,0.5,0.2,0.7,0.3c0.2,0.1,0.3,0.2,0.5,0.4c0.2,0.2,0.2,0.4,0,0.6C59,24.4,58.9,24.5,58.8,24.5L58.8,24.5z"/>
					<path class="st22" d="M65.2,32.7c-1.3,0.1-2.7,0.1-4,0c0.2,0.7,0.7,1.4,1.3,1.8c0.4,0.2,0.9,0.2,1.3,0
						C64.6,34.1,65.1,33.5,65.2,32.7z"/>
					<path class="st2" d="M62.5,35.7c0.2,0,0.3,0,0.5,0c0,0,0.1,0,0.2,0h0.2c0.2,0,0.3,0,0.5,0c0.3,0.1,0.5,0.4,0.4,0.7c0,0,0,0,0,0
						c0,0.1-0.1,0.1-0.1,0.2c-0.1,0.1-0.2,0.2-0.4,0.3c-0.2,0.1-0.4,0.1-0.6,0.1c-0.2,0-0.4-0.1-0.6-0.2c-0.1-0.1-0.3-0.2-0.4-0.3
						c-0.2-0.2-0.2-0.6,0.1-0.8C62.4,35.8,62.5,35.8,62.5,35.7z"/>
					<path class="st0" d="M63.1,28.2c-0.1,0.1-0.1,0.3-0.2,0.4c0,0,0,0.1,0,0.1s0,0,0-0.2c0.2,0.3,0.2,0.7,0.2,1
						c0,0.2-0.2,0.4-0.5,0.4c-0.1,0-0.2,0-0.3-0.1c-0.1-0.1-0.2-0.3-0.3-0.4c-0.1-0.1-0.2-0.3-0.2-0.4c-0.1-0.2-0.1-0.5,0-0.7
						c0.1-0.1,0.1-0.3,0.2-0.4c0.2-0.1,0.3-0.2,0.5-0.3c0.2-0.1,0.4,0,0.5,0.2c0,0,0,0,0,0C63.1,28,63.1,28.1,63.1,28.2L63.1,28.2z"
						/>
					<path class="st21" d="M69.8,26.2c0,0.6-0.2,1-0.7,1s-0.7-0.5-0.7-1s0.2-1.4,0.7-1.4S69.8,25.7,69.8,26.2z"/>
					<path class="st0" d="M67.3,23.7c0.1-0.1,0.3-0.3,0.5-0.4c0.2-0.1,0.4-0.2,0.7-0.3c0.4-0.1,0.9-0.1,1.4,0
						c0.4,0.1,0.9,0.2,1.3,0.4c0.2,0.1,0.4,0.2,0.6,0.4c0.1,0.1,0.2,0.2,0.3,0.3l0.2,0.2c0.1,0.2,0.1,0.5-0.1,0.6c0,0,0,0,0,0
						c-0.1,0.1-0.3,0.1-0.4,0l-0.2-0.2c-0.1,0-0.1-0.1-0.2-0.1c-0.1-0.1-0.3-0.1-0.5-0.2c-0.3-0.1-0.7-0.2-1-0.2
						c-0.3-0.1-0.7-0.1-1-0.1c-0.1,0-0.3,0-0.4,0.1c-0.2,0-0.3,0.1-0.5,0.2l0,0c-0.2,0.1-0.5,0-0.5-0.2C67,24.1,67.1,23.9,67.3,23.7
						L67.3,23.7z"/>
					<path class="st23" d="M123.8,10c-5.7-8.2-17-10.1-25.2-4.4c-7.4,5.2-9.8,15.2-5.6,23.2l-1.6,3.9l4.2-0.2
						c6.7,7.4,18.1,8,25.5,1.3C127.9,27.7,129,17.4,123.8,10z"/>
					<path class="st23" d="M123.2,9.1C117.5,1,106.2-1,98,4.7c-7.5,5.2-9.9,15.2-5.6,23.3l-1.6,3.9l4.3-0.2
						c6.8,7.3,18.2,7.7,25.6,0.9C127.1,26.5,128.2,16.5,123.2,9.1z"/>
					<path class="st5" d="M123.2,9.1C117.5,1,106.2-1,98,4.7c-7.5,5.2-9.9,15.2-5.6,23.3l-1.6,3.9l4.3-0.2
						c6.8,7.3,18.2,7.7,25.6,0.9C127.1,26.5,128.2,16.5,123.2,9.1z"/>
					<path class="st0" d="M104.6,27.3c-0.3,0-0.5-0.1-0.7-0.3c-0.2-0.2-0.3-0.4-0.3-0.7c0-0.3,0.1-0.5,0.3-0.7
						c0.2-0.2,0.5-0.3,0.7-0.3h2.2c0.1,0,0.2,0,0.2-0.1c0,0,0,0,0-0.1V14.6c0-0.1-0.1-0.2-0.2-0.2c0,0,0,0,0,0h-1.8
						c-0.2,0-0.4-0.1-0.5-0.2c-0.1-0.1-0.2-0.3-0.2-0.6c0-0.2,0.1-0.4,0.2-0.6c0.1-0.2,0.3-0.3,0.5-0.3c0.6-0.1,1.2-0.3,1.8-0.6
						c0.5-0.3,1.1-0.4,1.7-0.4c0.5,0,0.9,0.4,0.9,0.9c0,0,0,0,0,0v12.5c0,0.1,0.1,0.2,0.2,0.2c0,0,0,0,0.1,0h1.8c0.6,0,1,0.4,1,1
						c0,0.3-0.1,0.5-0.3,0.7c-0.2,0.2-0.4,0.3-0.7,0.3L104.6,27.3z"/>
				</g>
			</g>
			<path class="st24" d="M120.4,82.1c0.8,0.1,1.6,0.2,2.5,0.2c0.5,0.1,0.9-0.1,1.3-0.4c0.5-0.7,0.9-2.9,1.1-6.7h-2.7l-0.2,1
				c0,0.2-0.2,0.3-0.4,0.3c-0.1,0-0.5,0-1.2-0.1c-0.8-0.1-1.2-0.2-1.2-0.4c0-0.1,0-0.1,0-0.2c0.5-2.1,0.8-4.3,1-6.5
				c0.1-0.5,0.1-1,0.1-1.5c0-0.1,0-0.3,0-0.5c0-0.2,0.1-0.3,0.3-0.4c0,0,0.1,0,0.1,0l1.8,0.1h2.5v-3.5h-2.7h-2.4c-0.2,0-0.2,0-0.3,0
				c0-0.1,0-0.2,0-0.2v-2c0-0.1,0-0.2,0-0.3c0.1,0,0.2,0,0.3,0l2.4,0.1h3.1l1.9-0.1c0.2,0,0.2,0,0.3,0.1c0,0.1,0,0.2,0,0.3l0.1,2.5
				v2.9l0.1,2.5c0,0.2,0,0.2-0.1,0.3c-0.1,0-0.2,0-0.3,0h-1.9h-2.5c-0.1,1-0.2,2.1-0.4,3.3h3l1.8-0.1c0.2,0,0.3,0.1,0.3,0.3v0.1
				c0,0.3-0.1,0.9-0.1,2c-0.2,4-0.6,6.8-1.2,8.2c-0.2,0.6-0.7,1.1-1.3,1.4c-0.7,0.3-1.5,0.4-2.3,0.4h-1.3c-0.3,0-0.5-0.1-0.6-0.2
				c-0.1-0.2-0.2-0.5-0.2-0.8C121,83.5,120.7,82.8,120.4,82.1z M139.9,79.3c0,0-0.1-0.1-0.1-0.2c0-0.1,0.1-0.2,0.3-0.3l1.4-0.6
				c0.1,0,0.2-0.1,0.2-0.1c0.1,0,0.2,0.1,0.3,0.2c1.2,1.6,2.2,3.4,3,5.3c0,0.1,0,0.1,0,0.2c0,0.1-0.1,0.2-0.3,0.3l-1.6,0.7
				c-0.1,0-0.2,0.1-0.3,0.1c-0.1,0-0.2-0.1-0.3-0.3c-0.3-0.9-0.6-1.5-0.8-1.9c-3.2,0.6-6.8,1.2-10.8,1.7c-0.4,0-0.8,0.1-1.2,0.3
				c-0.2,0.1-0.3,0.1-0.5,0.1c-0.2,0-0.4-0.2-0.5-0.4c-0.2-0.5-0.4-1.5-0.6-2.8c0.4,0,0.7,0,1.1,0c0.6,0,1.3,0,2.1-0.1
				c1.1-0.1,2.3-0.2,3.5-0.3v-3.4h-1.6l-3.6,0.1c-0.1,0-0.2,0-0.3-0.1c0-0.1,0-0.2,0-0.3l0.1-2.2v-3l-0.1-2.2c0-0.2,0-0.2,0.1-0.3
				c0.1,0,0.2,0,0.3,0l3.6,0.1h1.6v-2.4c-1.4,0.1-2.6,0.2-3.8,0.3c-0.3,0-0.7,0.1-1,0.2c-0.1,0.1-0.3,0.1-0.4,0.1
				c-0.2,0-0.3-0.2-0.4-0.4c-0.2-0.9-0.3-1.7-0.4-2.5c0.3,0,0.7,0,1.1,0h1.1c0.7-1.2,1.3-2.4,1.7-3.6c0.3-0.6,0.4-1.2,0.5-1.9
				c0.9,0.1,1.8,0.3,2.7,0.5c0.3,0.1,0.4,0.2,0.4,0.4c0,0.2-0.1,0.4-0.3,0.5c-0.2,0.2-0.4,0.5-0.5,0.8c-0.6,1.1-1.1,2.2-1.8,3.2
				c1.4-0.1,3.4-0.2,5.9-0.4c-0.5-0.7-1.1-1.4-1.7-2c-0.1-0.1-0.1-0.1-0.1-0.2c0-0.1,0.1-0.2,0.3-0.2l1.4-0.8
				c0.1-0.1,0.2-0.1,0.3-0.1c0.1,0,0.2,0.1,0.2,0.2c1.7,1.7,3.1,3.4,4.5,5.4c0.1,0.1,0.1,0.2,0.1,0.3c0,0.1-0.1,0.2-0.3,0.3l-1.7,1
				c-0.1,0.1-0.2,0.1-0.3,0.2c-0.1,0-0.2-0.1-0.2-0.2c-0.4-0.7-0.7-1.2-0.9-1.5c-1.3,0.2-2.6,0.3-3.8,0.4v2.6h1.9l3.6-0.1
				c0.2,0,0.2,0,0.3,0.1c0,0.1,0,0.2,0,0.3l-0.1,2.2v3l0.1,2.2c0,0.1,0,0.2-0.1,0.3c0,0-0.1,0.1-0.3,0.1l-3.6-0.1h-1.9V81l3-0.4
				L139.9,79.3z M132.1,75.5h2.9v-3.3h-2.9L132.1,75.5z M140.7,75.5v-3.3h-3.1v3.3H140.7z"/>
			<path class="st24" d="M163.9,72.8c0.3-1.2,0.5-2.4,0.6-3.6c0-0.3,0-0.5,0-0.8c0-0.4,0-0.7-0.1-1.1c1.1,0.2,2.2,0.6,3.2,1.2
				c0.2,0.1,0.3,0.3,0.3,0.5c0,0.1,0,0.2-0.1,0.3c-0.2,0.4-0.3,0.7-0.4,1.1c-0.2,0.9-0.4,2.1-0.8,3.6c1.5,0.8,3,1.7,4.4,2.7
				c0.1,0,0.2,0.2,0.2,0.3c0,0.1,0,0.2,0,0.3c-0.4,0.8-0.8,1.6-1.2,2.4c-0.1,0.1-0.2,0.2-0.2,0.2c-0.1,0-0.3-0.1-0.3-0.2
				c-1.1-1-2.4-1.9-3.7-2.6c-0.7,1.5-1.5,3-2.5,4.3c-0.9,1.1-2,2.1-3.1,3c-0.2,0.2-0.3,0.3-0.6,0.3c-0.2,0-0.3-0.1-0.4-0.2
				c-0.7-0.6-1.6-0.9-2.4-1.2c1.6-1.1,3-2.4,4.2-3.9c0.8-1.1,1.5-2.4,2-3.7c-1.7-0.9-3.6-1.4-5.5-1.7c-0.8,2-2,3.9-3.4,5.6
				c-0.9,1-2.2,1.6-3.6,1.5c-0.9,0-1.8-0.3-2.4-1c-0.7-0.8-1-1.8-0.9-2.8c0-1.9,1-3.6,2.7-4.6c1.7-1.1,3.6-1.6,5.6-1.6
				c0.9-2.3,1.7-4.5,2.3-6.6l-3.9,0.4c-0.4,0.1-0.9,0.2-1.3,0.3c-0.2,0.1-0.3,0.1-0.5,0.1c-0.2,0-0.4-0.1-0.4-0.3
				c-0.4-1-0.6-2-0.8-3c0.6,0.1,1.3,0.2,1.9,0.2h0.5c1.5,0,2.9-0.1,4.3-0.4c0.5-0.1,0.9-0.2,1.4-0.5c0.1-0.1,0.2-0.1,0.4-0.1
				c0.1,0,0.3,0,0.4,0.1c0.7,0.4,1.4,0.9,1.9,1.5c0.1,0.1,0.2,0.3,0.2,0.5c0,0.2-0.1,0.4-0.3,0.5c-0.2,0.2-0.4,0.4-0.5,0.7l-0.3,0.7
				c-1.4,3.7-2.2,5.7-2.3,6.1C160.3,71.7,162.1,72.1,163.9,72.8z M154.3,73.8c-1.3,0-2.5,0.4-3.5,1.2c-0.7,0.5-1.1,1.2-1.1,2
				c0,0.8,0.3,1.3,1,1.3c0.7-0.1,1.3-0.5,1.6-1.1C153.1,76.1,153.8,75,154.3,73.8L154.3,73.8z"/>
			<path class="st24" d="M186.6,45.2c2.6-0.1,5.1,0.7,7.3,2.1c2.2,1.6,3.9,3.8,4.8,6.4c1.1,2.8,1.7,6.8,1.7,11.9s-0.6,9.1-1.7,12
				c-0.9,2.5-2.5,4.7-4.6,6.3c-2.1,1.4-4.7,2.1-7.2,2c-2.6,0.1-5.2-0.6-7.4-2c-2.1-1.5-3.8-3.7-4.7-6.2c-1.1-2.8-1.7-6.7-1.7-11.8
				c0-7.1,1.1-12.3,3.3-15.5C178.6,47.1,182.5,45.1,186.6,45.2z M186.8,52.2c-1.2,0-2.4,0.4-3.3,1.2c-1.1,1.1-1.9,2.6-2.2,4.1
				c-0.6,2.8-0.8,5.7-0.8,8.6c0,4.9,0.6,8.3,1.7,10.2c0.9,1.7,2.6,2.8,4.5,2.9c1.8,0,3.4-1.1,4.2-2.7c1.3-2.1,2-5.7,2-10.8
				s-0.6-8.5-1.8-10.5C190.1,53.2,188.6,52.2,186.8,52.2L186.8,52.2z"/>
			<path class="st24" d="M208.6,46.2h11.1V85h-7.3V53.2h-8L208.6,46.2z"/>
			<path class="st5" d="M120.4,82.1c0.8,0.1,1.6,0.2,2.5,0.2c0.5,0.1,0.9-0.1,1.3-0.4c0.5-0.7,0.9-2.9,1.1-6.7h-2.7l-0.2,1
				c0,0.2-0.2,0.3-0.4,0.3c-0.1,0-0.5,0-1.2-0.1c-0.8-0.1-1.2-0.2-1.2-0.4c0-0.1,0-0.1,0-0.2c0.5-2.1,0.8-4.3,1-6.5
				c0.1-0.5,0.1-1,0.1-1.5c0-0.1,0-0.3,0-0.5c0-0.2,0.1-0.3,0.3-0.4c0,0,0.1,0,0.1,0l1.8,0.1h2.5v-3.5h-2.7h-2.4c-0.2,0-0.2,0-0.3,0
				c0-0.1,0-0.2,0-0.2v-2c0-0.1,0-0.2,0-0.3c0.1,0,0.2,0,0.3,0l2.4,0.1h3.1l1.9-0.1c0.2,0,0.2,0,0.3,0.1c0,0.1,0,0.2,0,0.3l0.1,2.5
				v2.9l0.1,2.5c0,0.2,0,0.2-0.1,0.3c-0.1,0-0.2,0-0.3,0h-1.9h-2.5c-0.1,1-0.2,2.1-0.4,3.3h3l1.8-0.1c0.2,0,0.3,0.1,0.3,0.3v0.1
				c0,0.3-0.1,0.9-0.1,2c-0.2,4-0.6,6.8-1.2,8.2c-0.2,0.6-0.7,1.1-1.3,1.4c-0.7,0.3-1.5,0.4-2.3,0.4h-1.3c-0.3,0-0.5-0.1-0.6-0.2
				c-0.1-0.2-0.2-0.5-0.2-0.8C121,83.5,120.7,82.8,120.4,82.1z M139.9,79.3c0,0-0.1-0.1-0.1-0.2c0-0.1,0.1-0.2,0.3-0.3l1.4-0.6
				c0.1,0,0.2-0.1,0.2-0.1c0.1,0,0.2,0.1,0.3,0.2c1.2,1.6,2.2,3.4,3,5.3c0,0.1,0,0.1,0,0.2c0,0.1-0.1,0.2-0.3,0.3l-1.6,0.7
				c-0.1,0-0.2,0.1-0.3,0.1c-0.1,0-0.2-0.1-0.3-0.3c-0.3-0.9-0.6-1.5-0.8-1.9c-3.2,0.6-6.8,1.2-10.8,1.7c-0.4,0-0.8,0.1-1.2,0.3
				c-0.2,0.1-0.3,0.1-0.5,0.1c-0.2,0-0.4-0.2-0.5-0.4c-0.2-0.5-0.4-1.5-0.6-2.8c0.4,0,0.7,0,1.1,0c0.6,0,1.3,0,2.1-0.1
				c1.1-0.1,2.3-0.2,3.5-0.3v-3.4h-1.6l-3.6,0.1c-0.1,0-0.2,0-0.3-0.1c0-0.1,0-0.2,0-0.3l0.1-2.2v-3l-0.1-2.2c0-0.2,0-0.2,0.1-0.3
				c0.1,0,0.2,0,0.3,0l3.6,0.1h1.6v-2.4c-1.4,0.1-2.6,0.2-3.8,0.3c-0.3,0-0.7,0.1-1,0.2c-0.1,0.1-0.3,0.1-0.4,0.1
				c-0.2,0-0.3-0.2-0.4-0.4c-0.2-0.9-0.3-1.7-0.4-2.5c0.3,0,0.7,0,1.1,0h1.1c0.7-1.2,1.3-2.4,1.7-3.6c0.3-0.6,0.4-1.2,0.5-1.9
				c0.9,0.1,1.8,0.3,2.7,0.5c0.3,0.1,0.4,0.2,0.4,0.4c0,0.2-0.1,0.4-0.3,0.5c-0.2,0.2-0.4,0.5-0.5,0.8c-0.6,1.1-1.1,2.2-1.8,3.2
				c1.4-0.1,3.4-0.2,5.9-0.4c-0.5-0.7-1.1-1.4-1.7-2c-0.1-0.1-0.1-0.1-0.1-0.2c0-0.1,0.1-0.2,0.3-0.2l1.4-0.8
				c0.1-0.1,0.2-0.1,0.3-0.1c0.1,0,0.2,0.1,0.2,0.2c1.7,1.7,3.1,3.4,4.5,5.4c0.1,0.1,0.1,0.2,0.1,0.3c0,0.1-0.1,0.2-0.3,0.3l-1.7,1
				c-0.1,0.1-0.2,0.1-0.3,0.2c-0.1,0-0.2-0.1-0.2-0.2c-0.4-0.7-0.7-1.2-0.9-1.5c-1.3,0.2-2.6,0.3-3.8,0.4v2.6h1.9l3.6-0.1
				c0.2,0,0.2,0,0.3,0.1c0,0.1,0,0.2,0,0.3l-0.1,2.2v3l0.1,2.2c0,0.1,0,0.2-0.1,0.3c0,0-0.1,0.1-0.3,0.1l-3.6-0.1h-1.9V81l3-0.4
				L139.9,79.3z M132.1,75.5h2.9v-3.3h-2.9L132.1,75.5z M140.7,75.5v-3.3h-3.1v3.3H140.7z"/>
			<path class="st5" d="M163.9,72.8c0.3-1.2,0.5-2.4,0.6-3.6c0-0.3,0-0.5,0-0.8c0-0.4,0-0.7-0.1-1.1c1.1,0.2,2.2,0.6,3.2,1.2
				c0.2,0.1,0.3,0.3,0.3,0.5c0,0.1,0,0.2-0.1,0.3c-0.2,0.4-0.3,0.7-0.4,1.1c-0.2,0.9-0.4,2.1-0.8,3.6c1.5,0.8,3,1.7,4.4,2.7
				c0.1,0,0.2,0.2,0.2,0.3c0,0.1,0,0.2,0,0.3c-0.4,0.8-0.8,1.6-1.2,2.4c-0.1,0.1-0.2,0.2-0.2,0.2c-0.1,0-0.3-0.1-0.3-0.2
				c-1.1-1-2.4-1.9-3.7-2.6c-0.7,1.5-1.5,3-2.5,4.3c-0.9,1.1-2,2.1-3.1,3c-0.2,0.2-0.3,0.3-0.6,0.3c-0.2,0-0.3-0.1-0.4-0.2
				c-0.7-0.6-1.6-0.9-2.4-1.2c1.6-1.1,3-2.4,4.2-3.9c0.8-1.1,1.5-2.4,2-3.7c-1.7-0.9-3.6-1.4-5.5-1.7c-0.8,2-2,3.9-3.4,5.6
				c-0.9,1-2.2,1.6-3.6,1.5c-0.9,0-1.8-0.3-2.4-1c-0.7-0.8-1-1.8-0.9-2.8c0-1.9,1-3.6,2.7-4.6c1.7-1.1,3.6-1.6,5.6-1.6
				c0.9-2.3,1.7-4.5,2.3-6.6l-3.9,0.4c-0.4,0.1-0.9,0.2-1.3,0.3c-0.2,0.1-0.3,0.1-0.5,0.1c-0.2,0-0.4-0.1-0.4-0.3
				c-0.4-1-0.6-2-0.8-3c0.6,0.1,1.3,0.2,1.9,0.2h0.5c1.5,0,2.9-0.1,4.3-0.4c0.5-0.1,0.9-0.2,1.4-0.5c0.1-0.1,0.2-0.1,0.4-0.1
				c0.1,0,0.3,0,0.4,0.1c0.7,0.4,1.4,0.9,1.9,1.5c0.1,0.1,0.2,0.3,0.2,0.5c0,0.2-0.1,0.4-0.3,0.5c-0.2,0.2-0.4,0.4-0.5,0.7l-0.3,0.7
				c-1.4,3.7-2.2,5.7-2.3,6.1C160.3,71.7,162.1,72.1,163.9,72.8z M154.3,73.8c-1.3,0-2.5,0.4-3.5,1.2c-0.7,0.5-1.1,1.2-1.1,2
				c0,0.8,0.3,1.3,1,1.3c0.7-0.1,1.3-0.5,1.6-1.1C153.1,76.1,153.8,75,154.3,73.8L154.3,73.8z"/>
			<path class="st5" d="M186.6,45.2c2.6-0.1,5.1,0.7,7.3,2.1c2.2,1.6,3.9,3.8,4.8,6.4c1.1,2.8,1.7,6.8,1.7,11.9s-0.6,9.1-1.7,12
				c-0.9,2.5-2.5,4.7-4.6,6.3c-2.1,1.4-4.7,2.1-7.2,2c-2.6,0.1-5.2-0.6-7.4-2c-2.1-1.5-3.8-3.7-4.7-6.2c-1.1-2.8-1.7-6.7-1.7-11.8
				c0-7.1,1.1-12.3,3.3-15.5C178.6,47.1,182.5,45.1,186.6,45.2z M186.8,52.2c-1.2,0-2.4,0.4-3.3,1.2c-1.1,1.1-1.9,2.6-2.2,4.1
				c-0.6,2.8-0.8,5.7-0.8,8.6c0,4.9,0.6,8.3,1.7,10.2c0.9,1.7,2.6,2.8,4.5,2.9c1.8,0,3.4-1.1,4.2-2.7c1.3-2.1,2-5.7,2-10.8
				s-0.6-8.5-1.8-10.5C190.1,53.2,188.6,52.2,186.8,52.2L186.8,52.2z"/>
			<path class="st5" d="M208.6,46.2h11.1V85h-7.3V53.2h-8L208.6,46.2z"/>
		</g>
	</g>
</g>
</svg>
